<mxfile host="app.diagrams.net" agent="Mozilla/5.0 (Windows NT 10.0; Win64; x64) AppleWebKit/537.36 (KHTML, like Gecko) Chrome/138.0.0.0 Safari/537.36" version="28.0.7">
  <diagram name="Trang-1" id="O1wU9D8nZa0KIipWaL6G">
    <mxGraphModel dx="1851" dy="803" grid="1" gridSize="10" guides="1" tooltips="1" connect="1" arrows="1" fold="1" page="1" pageScale="1" pageWidth="850" pageHeight="1100" math="0" shadow="0">
      <root>
        <mxCell id="0" />
        <mxCell id="1" parent="0" />
        <mxCell id="3uChI2uYwqrTZNYXiTaa-94" value="RGBAColor" style="swimlane;fontStyle=1;align=center;verticalAlign=top;childLayout=stackLayout;horizontal=1;startSize=26;horizontalStack=0;resizeParent=1;resizeParentMax=0;resizeLast=0;collapsible=1;marginBottom=0;whiteSpace=wrap;html=1;" vertex="1" parent="1">
          <mxGeometry x="1880" y="1088" width="470" height="690" as="geometry" />
        </mxCell>
        <mxCell id="3uChI2uYwqrTZNYXiTaa-228" value="- red : int&lt;div&gt;&lt;br&gt;&lt;/div&gt;&lt;div&gt;- green : int&lt;/div&gt;&lt;div&gt;&lt;br&gt;&lt;/div&gt;&lt;div&gt;- blue : int&lt;/div&gt;" style="text;strokeColor=none;fillColor=none;align=left;verticalAlign=top;spacingLeft=4;spacingRight=4;overflow=hidden;rotatable=0;points=[[0,0.5],[1,0.5]];portConstraint=eastwest;whiteSpace=wrap;html=1;" vertex="1" parent="3uChI2uYwqrTZNYXiTaa-94">
          <mxGeometry y="26" width="470" height="84" as="geometry" />
        </mxCell>
        <mxCell id="3uChI2uYwqrTZNYXiTaa-95" value="- alpha : float" style="text;strokeColor=none;fillColor=none;align=left;verticalAlign=top;spacingLeft=4;spacingRight=4;overflow=hidden;rotatable=0;points=[[0,0.5],[1,0.5]];portConstraint=eastwest;whiteSpace=wrap;html=1;" vertex="1" parent="3uChI2uYwqrTZNYXiTaa-94">
          <mxGeometry y="110" width="470" height="30" as="geometry" />
        </mxCell>
        <mxCell id="3uChI2uYwqrTZNYXiTaa-229" value="- isColor: bool" style="text;strokeColor=none;fillColor=none;align=left;verticalAlign=top;spacingLeft=4;spacingRight=4;overflow=hidden;rotatable=0;points=[[0,0.5],[1,0.5]];portConstraint=eastwest;whiteSpace=wrap;html=1;" vertex="1" parent="3uChI2uYwqrTZNYXiTaa-94">
          <mxGeometry y="140" width="470" height="30" as="geometry" />
        </mxCell>
        <mxCell id="3uChI2uYwqrTZNYXiTaa-96" value="" style="line;strokeWidth=1;fillColor=none;align=left;verticalAlign=middle;spacingTop=-1;spacingLeft=3;spacingRight=3;rotatable=0;labelPosition=right;points=[];portConstraint=eastwest;strokeColor=inherit;" vertex="1" parent="3uChI2uYwqrTZNYXiTaa-94">
          <mxGeometry y="170" width="470" height="8" as="geometry" />
        </mxCell>
        <mxCell id="3uChI2uYwqrTZNYXiTaa-97" value="&lt;div&gt;&lt;div&gt;+&amp;nbsp;&lt;span style=&quot;background-color: transparent; color: light-dark(rgb(0, 0, 0), rgb(255, 255, 255));&quot;&gt;&amp;lt;&amp;lt;constructor&amp;gt;&amp;gt;&amp;nbsp;&lt;/span&gt;&lt;span style=&quot;background-color: transparent; color: light-dark(rgb(0, 0, 0), rgb(255, 255, 255));&quot;&gt;RGBColor()&lt;/span&gt;&lt;/div&gt;&lt;div&gt;&lt;br&gt;&lt;/div&gt;&lt;div&gt;+&amp;nbsp;&lt;span style=&quot;background-color: transparent; color: light-dark(rgb(0, 0, 0), rgb(255, 255, 255));&quot;&gt;&amp;lt;&amp;lt;constructor&amp;gt;&amp;gt;&amp;nbsp;&lt;/span&gt;&lt;span style=&quot;background-color: transparent; color: light-dark(rgb(0, 0, 0), rgb(255, 255, 255));&quot;&gt;RGBColor(r : int, g : int, b : int)&lt;/span&gt;&lt;/div&gt;&lt;div&gt;&lt;span style=&quot;background-color: transparent; color: light-dark(rgb(0, 0, 0), rgb(255, 255, 255));&quot;&gt;&lt;br&gt;&lt;/span&gt;&lt;/div&gt;&lt;div&gt;+&amp;nbsp;&lt;span style=&quot;color: light-dark(rgb(0, 0, 0), rgb(255, 255, 255)); background-color: transparent;&quot;&gt;&amp;lt;&amp;lt;constructor&amp;gt;&amp;gt;&amp;nbsp;&lt;/span&gt;&lt;span style=&quot;color: light-dark(rgb(0, 0, 0), rgb(255, 255, 255)); background-color: transparent;&quot;&gt;RGBColor(r : int, g : int, b : int, a : float)&lt;/span&gt;&lt;span style=&quot;background-color: transparent; color: light-dark(rgb(0, 0, 0), rgb(255, 255, 255));&quot;&gt;&lt;/span&gt;&lt;/div&gt;&lt;div&gt;&lt;span style=&quot;background-color: transparent; color: light-dark(rgb(0, 0, 0), rgb(255, 255, 255));&quot;&gt;&lt;br&gt;&lt;/span&gt;&lt;/div&gt;&lt;div&gt;+ ~RGBColor()&lt;/div&gt;&lt;/div&gt;&lt;div&gt;&lt;br&gt;&lt;/div&gt;&lt;div&gt;- clamp(value : int) : int&lt;/div&gt;&lt;div&gt;&lt;br&gt;&lt;/div&gt;&lt;div&gt;- clamp(value : float) : float&lt;/div&gt;&lt;div&gt;&lt;br&gt;&lt;/div&gt;&lt;div&gt;+ getColor() : RGBAColor&lt;/div&gt;&lt;div&gt;&lt;br&gt;&lt;/div&gt;&lt;div&gt;&lt;span style=&quot;background-color: transparent; color: light-dark(rgb(0, 0, 0), rgb(255, 255, 255));&quot;&gt;+ getRed() : int&lt;/span&gt;&lt;/div&gt;&lt;div&gt;&lt;span style=&quot;background-color: transparent; color: light-dark(rgb(0, 0, 0), rgb(255, 255, 255));&quot;&gt;&lt;br&gt;&lt;/span&gt;&lt;/div&gt;&lt;div&gt;+ getGreen() : int&lt;/div&gt;&lt;div&gt;&lt;br&gt;&lt;/div&gt;&lt;div&gt;+ getBlue() : int&lt;/div&gt;&lt;div&gt;&lt;br&gt;&lt;/div&gt;&lt;div&gt;+ getAlpha() : float&lt;/div&gt;&lt;div&gt;&lt;br&gt;&lt;/div&gt;&lt;div&gt;+ getIsColor() : bool&lt;/div&gt;&lt;div&gt;&lt;br&gt;&lt;/div&gt;&lt;div&gt;&lt;span style=&quot;background-color: transparent; color: light-dark(rgb(0, 0, 0), rgb(255, 255, 255));&quot;&gt;+ setRed(r : int) : void&lt;/span&gt;&lt;/div&gt;&lt;div&gt;&lt;br&gt;&lt;/div&gt;&lt;div&gt;+ setGreen(g : int) : void&lt;/div&gt;&lt;div&gt;&lt;br&gt;&lt;/div&gt;&lt;div&gt;+ setBlue(b : int): void&lt;/div&gt;&lt;div&gt;&lt;br&gt;&lt;/div&gt;&lt;div&gt;+ setAlpha(a : float): void&lt;/div&gt;&lt;div&gt;&lt;br&gt;&lt;/div&gt;&lt;div&gt;&lt;div&gt;+ setIsColor(mode : bool): void&lt;/div&gt;&lt;div&gt;&lt;span style=&quot;background-color: transparent; color: light-dark(rgb(0, 0, 0), rgb(255, 255, 255));&quot;&gt;&lt;br&gt;&lt;/span&gt;&lt;/div&gt;&lt;div&gt;&lt;span style=&quot;background-color: transparent; color: light-dark(rgb(0, 0, 0), rgb(255, 255, 255));&quot;&gt;+ textToRGBA(text : char*) : void&lt;/span&gt;&lt;/div&gt;&lt;/div&gt;&lt;div&gt;&lt;br&gt;&lt;/div&gt;&lt;div&gt;&lt;br&gt;&lt;/div&gt;" style="text;strokeColor=none;fillColor=none;align=left;verticalAlign=top;spacingLeft=4;spacingRight=4;overflow=hidden;rotatable=0;points=[[0,0.5],[1,0.5]];portConstraint=eastwest;whiteSpace=wrap;html=1;" vertex="1" parent="3uChI2uYwqrTZNYXiTaa-94">
          <mxGeometry y="178" width="470" height="512" as="geometry" />
        </mxCell>
        <mxCell id="3uChI2uYwqrTZNYXiTaa-98" value="SVGRectangle" style="swimlane;fontStyle=1;align=center;verticalAlign=top;childLayout=stackLayout;horizontal=1;startSize=26;horizontalStack=0;resizeParent=1;resizeParentMax=0;resizeLast=0;collapsible=1;marginBottom=0;whiteSpace=wrap;html=1;" vertex="1" parent="1">
          <mxGeometry x="1160" y="2350" width="470" height="230" as="geometry" />
        </mxCell>
        <mxCell id="3uChI2uYwqrTZNYXiTaa-99" value="&lt;div&gt;&lt;span style=&quot;background-color: transparent; color: light-dark(rgb(0, 0, 0), rgb(255, 255, 255));&quot;&gt;- width : int&lt;/span&gt;&lt;/div&gt;&lt;div&gt;&lt;br&gt;&lt;/div&gt;&lt;div&gt;- height : int&lt;/div&gt;" style="text;strokeColor=none;fillColor=none;align=left;verticalAlign=top;spacingLeft=4;spacingRight=4;overflow=hidden;rotatable=0;points=[[0,0.5],[1,0.5]];portConstraint=eastwest;whiteSpace=wrap;html=1;" vertex="1" parent="3uChI2uYwqrTZNYXiTaa-98">
          <mxGeometry y="26" width="470" height="64" as="geometry" />
        </mxCell>
        <mxCell id="3uChI2uYwqrTZNYXiTaa-100" value="" style="line;strokeWidth=1;fillColor=none;align=left;verticalAlign=middle;spacingTop=-1;spacingLeft=3;spacingRight=3;rotatable=0;labelPosition=right;points=[];portConstraint=eastwest;strokeColor=inherit;" vertex="1" parent="3uChI2uYwqrTZNYXiTaa-98">
          <mxGeometry y="90" width="470" height="8" as="geometry" />
        </mxCell>
        <mxCell id="3uChI2uYwqrTZNYXiTaa-101" value="+ &amp;lt;&amp;lt;override&amp;gt;&amp;gt; processAttribute(attributeName: char*, attributeValue: char*) : void&lt;div&gt;&lt;br&gt;&lt;div&gt;+&amp;nbsp;&lt;span style=&quot;background-color: transparent; color: light-dark(rgb(0, 0, 0), rgb(255, 255, 255));&quot;&gt;&amp;lt;&amp;lt;override&amp;gt;&amp;gt;&lt;/span&gt;&lt;span style=&quot;background-color: transparent; color: light-dark(rgb(0, 0, 0), rgb(255, 255, 255));&quot;&gt;draw(graphics: Graphics&amp;amp;) : void&lt;/span&gt;&lt;/div&gt;&lt;/div&gt;&lt;div&gt;&lt;span style=&quot;background-color: transparent; color: light-dark(rgb(0, 0, 0), rgb(255, 255, 255));&quot;&gt;&lt;br&gt;&lt;/span&gt;&lt;/div&gt;&lt;div&gt;&lt;span style=&quot;background-color: transparent; color: light-dark(rgb(0, 0, 0), rgb(255, 255, 255));&quot;&gt;+&amp;nbsp;&lt;/span&gt;&lt;span style=&quot;background-color: transparent; color: light-dark(rgb(0, 0, 0), rgb(255, 255, 255));&quot;&gt;&amp;lt;&amp;lt;constructor&amp;gt;&amp;gt;&amp;nbsp;&lt;/span&gt;&lt;span style=&quot;background-color: transparent; color: light-dark(rgb(0, 0, 0), rgb(255, 255, 255));&quot;&gt;SVGRectangle()&lt;/span&gt;&lt;/div&gt;" style="text;strokeColor=none;fillColor=none;align=left;verticalAlign=top;spacingLeft=4;spacingRight=4;overflow=hidden;rotatable=0;points=[[0,0.5],[1,0.5]];portConstraint=eastwest;whiteSpace=wrap;html=1;" vertex="1" parent="3uChI2uYwqrTZNYXiTaa-98">
          <mxGeometry y="98" width="470" height="92" as="geometry" />
        </mxCell>
        <mxCell id="3uChI2uYwqrTZNYXiTaa-208" value="&lt;div&gt;&lt;span style=&quot;background-color: transparent;&quot;&gt;+ &amp;lt;&amp;lt;constructor&amp;gt;&amp;gt;&amp;nbsp;&lt;/span&gt;&lt;span style=&quot;text-align: center;&quot;&gt;SVGRectangle&lt;/span&gt;&lt;span style=&quot;background-color: transparent;&quot;&gt;(_stroke :&amp;nbsp;const RGBAColor&amp;amp;, _strokeWidth :&amp;nbsp;const float&amp;amp;, _fill :&amp;nbsp;const RGBAColor&amp;amp;)&lt;/span&gt;&lt;/div&gt;" style="text;strokeColor=none;fillColor=none;align=left;verticalAlign=top;spacingLeft=4;spacingRight=4;overflow=hidden;rotatable=0;points=[[0,0.5],[1,0.5]];portConstraint=eastwest;whiteSpace=wrap;html=1;" vertex="1" parent="3uChI2uYwqrTZNYXiTaa-98">
          <mxGeometry y="190" width="470" height="40" as="geometry" />
        </mxCell>
        <mxCell id="3uChI2uYwqrTZNYXiTaa-102" value="Point2D" style="swimlane;fontStyle=1;align=center;verticalAlign=top;childLayout=stackLayout;horizontal=1;startSize=26;horizontalStack=0;resizeParent=1;resizeParentMax=0;resizeLast=0;collapsible=1;marginBottom=0;whiteSpace=wrap;html=1;" vertex="1" parent="1">
          <mxGeometry x="480" y="1088" width="310" height="290" as="geometry" />
        </mxCell>
        <mxCell id="3uChI2uYwqrTZNYXiTaa-103" value="- x: int&lt;div&gt;&lt;br&gt;&lt;div&gt;- y: int&lt;/div&gt;&lt;/div&gt;" style="text;strokeColor=none;fillColor=none;align=left;verticalAlign=top;spacingLeft=4;spacingRight=4;overflow=hidden;rotatable=0;points=[[0,0.5],[1,0.5]];portConstraint=eastwest;whiteSpace=wrap;html=1;" vertex="1" parent="3uChI2uYwqrTZNYXiTaa-102">
          <mxGeometry y="26" width="310" height="54" as="geometry" />
        </mxCell>
        <mxCell id="3uChI2uYwqrTZNYXiTaa-104" value="" style="line;strokeWidth=1;fillColor=none;align=left;verticalAlign=middle;spacingTop=-1;spacingLeft=3;spacingRight=3;rotatable=0;labelPosition=right;points=[];portConstraint=eastwest;strokeColor=inherit;" vertex="1" parent="3uChI2uYwqrTZNYXiTaa-102">
          <mxGeometry y="80" width="310" height="8" as="geometry" />
        </mxCell>
        <mxCell id="3uChI2uYwqrTZNYXiTaa-105" value="&lt;div&gt;&lt;div&gt;+&amp;nbsp;&lt;span style=&quot;background-color: transparent; color: light-dark(rgb(0, 0, 0), rgb(255, 255, 255));&quot;&gt;&amp;lt;&amp;lt;constructor&amp;gt;&amp;gt;&amp;nbsp;&lt;/span&gt;&lt;span style=&quot;background-color: transparent; color: light-dark(rgb(0, 0, 0), rgb(255, 255, 255));&quot;&gt;Point2D()&lt;/span&gt;&lt;/div&gt;&lt;div&gt;&lt;br&gt;&lt;/div&gt;&lt;div&gt;+&amp;nbsp;&lt;span style=&quot;background-color: transparent; color: light-dark(rgb(0, 0, 0), rgb(255, 255, 255));&quot;&gt;&amp;lt;&amp;lt;constructor&amp;gt;&amp;gt;&amp;nbsp;&lt;/span&gt;&lt;span style=&quot;background-color: transparent; color: light-dark(rgb(0, 0, 0), rgb(255, 255, 255));&quot;&gt;Point2D(coorX : int, coorY : int)&lt;/span&gt;&lt;/div&gt;&lt;div&gt;&lt;span style=&quot;background-color: transparent; color: light-dark(rgb(0, 0, 0), rgb(255, 255, 255));&quot;&gt;&lt;br&gt;&lt;/span&gt;&lt;/div&gt;&lt;div&gt;&lt;span style=&quot;background-color: transparent; color: light-dark(rgb(0, 0, 0), rgb(255, 255, 255));&quot;&gt;+ ~Point2D()&lt;/span&gt;&lt;/div&gt;&lt;/div&gt;&lt;div&gt;&lt;span style=&quot;background-color: transparent; color: light-dark(rgb(0, 0, 0), rgb(255, 255, 255));&quot;&gt;&lt;br&gt;&lt;/span&gt;&lt;/div&gt;+getX(): int&lt;div&gt;&lt;br&gt;&lt;/div&gt;&lt;div&gt;+getY(): int&lt;/div&gt;&lt;div&gt;&lt;br&gt;&lt;/div&gt;&lt;div&gt;+setX(value: int): void&lt;/div&gt;&lt;div&gt;&lt;br&gt;&lt;/div&gt;&lt;div&gt;+setY(value: int): void&lt;/div&gt;" style="text;strokeColor=none;fillColor=none;align=left;verticalAlign=top;spacingLeft=4;spacingRight=4;overflow=hidden;rotatable=0;points=[[0,0.5],[1,0.5]];portConstraint=eastwest;whiteSpace=wrap;html=1;" vertex="1" parent="3uChI2uYwqrTZNYXiTaa-102">
          <mxGeometry y="88" width="310" height="202" as="geometry" />
        </mxCell>
        <mxCell id="3uChI2uYwqrTZNYXiTaa-106" value="SVGText" style="swimlane;fontStyle=1;align=center;verticalAlign=top;childLayout=stackLayout;horizontal=1;startSize=26;horizontalStack=0;resizeParent=1;resizeParentMax=0;resizeLast=0;collapsible=1;marginBottom=0;whiteSpace=wrap;html=1;" vertex="1" parent="1">
          <mxGeometry x="1680" y="2090" width="470" height="250" as="geometry" />
        </mxCell>
        <mxCell id="3uChI2uYwqrTZNYXiTaa-107" value="&lt;div&gt;&lt;span style=&quot;background-color: transparent; color: light-dark(rgb(0, 0, 0), rgb(255, 255, 255));&quot;&gt;- fontSize : float&lt;/span&gt;&lt;/div&gt;&lt;div&gt;&lt;br&gt;&lt;/div&gt;&lt;div&gt;- content : string&lt;/div&gt;&lt;div&gt;&lt;br&gt;&lt;/div&gt;" style="text;strokeColor=none;fillColor=none;align=left;verticalAlign=top;spacingLeft=4;spacingRight=4;overflow=hidden;rotatable=0;points=[[0,0.5],[1,0.5]];portConstraint=eastwest;whiteSpace=wrap;html=1;" vertex="1" parent="3uChI2uYwqrTZNYXiTaa-106">
          <mxGeometry y="26" width="470" height="54" as="geometry" />
        </mxCell>
        <mxCell id="3uChI2uYwqrTZNYXiTaa-108" value="" style="line;strokeWidth=1;fillColor=none;align=left;verticalAlign=middle;spacingTop=-1;spacingLeft=3;spacingRight=3;rotatable=0;labelPosition=right;points=[];portConstraint=eastwest;strokeColor=inherit;" vertex="1" parent="3uChI2uYwqrTZNYXiTaa-106">
          <mxGeometry y="80" width="470" height="8" as="geometry" />
        </mxCell>
        <mxCell id="3uChI2uYwqrTZNYXiTaa-109" value="+ &amp;lt;&amp;lt;override&amp;gt;&amp;gt; processAttribute(attributeName: char*, attributeValue: char*) : void&lt;div&gt;&lt;br&gt;&lt;div&gt;+&amp;nbsp;&lt;span style=&quot;background-color: transparent; color: light-dark(rgb(0, 0, 0), rgb(255, 255, 255));&quot;&gt;&amp;lt;&amp;lt;override&amp;gt;&amp;gt;&amp;nbsp;&lt;/span&gt;&lt;span style=&quot;background-color: transparent; color: light-dark(rgb(0, 0, 0), rgb(255, 255, 255));&quot;&gt;draw(graphics: Graphics&amp;amp;) : void&lt;/span&gt;&lt;/div&gt;&lt;/div&gt;&lt;div&gt;&lt;br&gt;&lt;/div&gt;&lt;div&gt;+ setContent(&lt;span style=&quot;background-color: transparent; color: light-dark(rgb(0, 0, 0), rgb(255, 255, 255));&quot;&gt;attributeValue: char*&lt;/span&gt;&lt;span style=&quot;background-color: transparent; color: light-dark(rgb(0, 0, 0), rgb(255, 255, 255));&quot;&gt;) : void&lt;/span&gt;&lt;/div&gt;&lt;div&gt;&lt;span style=&quot;background-color: transparent; color: light-dark(rgb(0, 0, 0), rgb(255, 255, 255));&quot;&gt;&lt;br&gt;&lt;/span&gt;&lt;/div&gt;&lt;div&gt;&lt;span style=&quot;background-color: transparent; color: light-dark(rgb(0, 0, 0), rgb(255, 255, 255));&quot;&gt;+&amp;nbsp;&lt;/span&gt;&lt;span style=&quot;background-color: transparent; color: light-dark(rgb(0, 0, 0), rgb(255, 255, 255));&quot;&gt;&amp;lt;&amp;lt;constructor&amp;gt;&amp;gt;&amp;nbsp;&lt;/span&gt;&lt;span style=&quot;background-color: transparent; color: light-dark(rgb(0, 0, 0), rgb(255, 255, 255));&quot;&gt;SVGText()&lt;/span&gt;&lt;/div&gt;&lt;div&gt;&lt;span style=&quot;color: rgba(0, 0, 0, 0); font-family: monospace; font-size: 0px; text-wrap-mode: nowrap;&quot;&gt;%3CmxGraphModel%3E%3Croot%3E%3CmxCell%20id%3D%220%22%2F%3E%3CmxCell%20id%3D%221%22%20parent%3D%220%22%2F%3E%3CmxCell%20id%3D%222%22%20value%3D%22%26lt%3Bdiv%26gt%3B%26lt%3Bspan%20style%3D%26quot%3Bbackground-color%3A%20transparent%3B%26quot%3B%26gt%3B%2B%20%26amp%3Blt%3B%26amp%3Blt%3Bconstructor%26amp%3Bgt%3B%26amp%3Bgt%3B%26amp%3Bnbsp%3B%26lt%3B%2Fspan%26gt%3B%26lt%3Bspan%20style%3D%26quot%3Btext-align%3A%20center%3B%26quot%3B%26gt%3BSVGRectangle%26lt%3B%2Fspan%26gt%3B%26lt%3Bspan%20style%3D%26quot%3Bbackground-color%3A%20transparent%3B%26quot%3B%26gt%3B(_stroke%20%3A%26amp%3Bnbsp%3Bconst%20RGBAColor%26amp%3Bamp%3B%2C%20_strokeWidth%20%3A%26amp%3Bnbsp%3Bconst%20float%26amp%3Bamp%3B%2C%20_fill%20%3A%26amp%3Bnbsp%3Bconst%20RGBAColor%26amp%3Bamp%3B)%26lt%3B%2Fspan%26gt%3B%26lt%3B%2Fdiv%26gt%3B%22%20style%3D%22text%3BstrokeColor%3Dnone%3BfillColor%3Dnone%3Balign%3Dleft%3BverticalAlign%3Dtop%3BspacingLeft%3D4%3BspacingRight%3D4%3Boverflow%3Dhidden%3Brotatable%3D0%3Bpoints%3D%5B%5B0%2C0.5%5D%2C%5B1%2C0.5%5D%5D%3BportConstraint%3Deastwest%3BwhiteSpace%3Dwrap%3Bhtml%3D1%3B%22%20vertex%3D%221%22%20parent%3D%221%22%3E%3CmxGeometry%20x%3D%221160%22%20y%3D%222540%22%20width%3D%22470%22%20height%3D%2240%22%20as%3D%22geometry%22%2F%3E%3C%2FmxCell%3E%3C%2Froot%3E%3C%2FmxGraphModel%3E&lt;/span&gt;&lt;span style=&quot;background-color: transparent; color: light-dark(rgb(0, 0, 0), rgb(255, 255, 255));&quot;&gt;&lt;/span&gt;&lt;/div&gt;" style="text;strokeColor=none;fillColor=none;align=left;verticalAlign=top;spacingLeft=4;spacingRight=4;overflow=hidden;rotatable=0;points=[[0,0.5],[1,0.5]];portConstraint=eastwest;whiteSpace=wrap;html=1;" vertex="1" parent="3uChI2uYwqrTZNYXiTaa-106">
          <mxGeometry y="88" width="470" height="122" as="geometry" />
        </mxCell>
        <mxCell id="3uChI2uYwqrTZNYXiTaa-209" value="&lt;div&gt;&lt;span style=&quot;background-color: transparent;&quot;&gt;+ &amp;lt;&amp;lt;constructor&amp;gt;&amp;gt;&amp;nbsp;&lt;/span&gt;&lt;span style=&quot;text-align: center;&quot;&gt;SVGText&lt;/span&gt;&lt;span style=&quot;background-color: transparent;&quot;&gt;(_stroke :&amp;nbsp;const RGBAColor&amp;amp;, _strokeWidth :&amp;nbsp;const float&amp;amp;, _fill :&amp;nbsp;const RGBAColor&amp;amp;)&lt;/span&gt;&lt;/div&gt;" style="text;strokeColor=none;fillColor=none;align=left;verticalAlign=top;spacingLeft=4;spacingRight=4;overflow=hidden;rotatable=0;points=[[0,0.5],[1,0.5]];portConstraint=eastwest;whiteSpace=wrap;html=1;" vertex="1" parent="3uChI2uYwqrTZNYXiTaa-106">
          <mxGeometry y="210" width="470" height="40" as="geometry" />
        </mxCell>
        <mxCell id="3uChI2uYwqrTZNYXiTaa-110" value="SVGCircle" style="swimlane;fontStyle=1;align=center;verticalAlign=top;childLayout=stackLayout;horizontal=1;startSize=26;horizontalStack=0;resizeParent=1;resizeParentMax=0;resizeLast=0;collapsible=1;marginBottom=0;whiteSpace=wrap;html=1;" vertex="1" parent="1">
          <mxGeometry x="670" y="2400" width="470" height="160" as="geometry" />
        </mxCell>
        <mxCell id="3uChI2uYwqrTZNYXiTaa-111" value="" style="line;strokeWidth=1;fillColor=none;align=left;verticalAlign=middle;spacingTop=-1;spacingLeft=3;spacingRight=3;rotatable=0;labelPosition=right;points=[];portConstraint=eastwest;strokeColor=inherit;" vertex="1" parent="3uChI2uYwqrTZNYXiTaa-110">
          <mxGeometry y="26" width="470" height="8" as="geometry" />
        </mxCell>
        <mxCell id="3uChI2uYwqrTZNYXiTaa-112" value="+ &amp;lt;&amp;lt;override&amp;gt;&amp;gt;&amp;nbsp;processAttribute(attributeName: char*, attributeValue: char*) : void&lt;div&gt;&lt;br&gt;&lt;div&gt;+&amp;nbsp;&lt;span style=&quot;background-color: transparent; color: light-dark(rgb(0, 0, 0), rgb(255, 255, 255));&quot;&gt;&amp;lt;&amp;lt;override&amp;gt;&amp;gt;&lt;/span&gt;&lt;span style=&quot;background-color: transparent; color: light-dark(rgb(0, 0, 0), rgb(255, 255, 255));&quot;&gt;&amp;nbsp;&lt;/span&gt;&lt;span style=&quot;background-color: transparent; color: light-dark(rgb(0, 0, 0), rgb(255, 255, 255));&quot;&gt;draw(graphics: Graphics&amp;amp;) : void&lt;/span&gt;&lt;/div&gt;&lt;/div&gt;&lt;div&gt;&lt;span style=&quot;background-color: transparent; color: light-dark(rgb(0, 0, 0), rgb(255, 255, 255));&quot;&gt;&lt;br&gt;&lt;/span&gt;&lt;/div&gt;&lt;div&gt;&lt;span style=&quot;background-color: transparent; color: light-dark(rgb(0, 0, 0), rgb(255, 255, 255));&quot;&gt;+&amp;nbsp;&lt;/span&gt;&lt;span style=&quot;background-color: transparent; color: light-dark(rgb(0, 0, 0), rgb(255, 255, 255));&quot;&gt;&amp;lt;&amp;lt;constructor&amp;gt;&amp;gt;&amp;nbsp;&lt;/span&gt;&lt;span style=&quot;background-color: transparent; color: light-dark(rgb(0, 0, 0), rgb(255, 255, 255));&quot;&gt;SVGCircle()&lt;/span&gt;&lt;/div&gt;" style="text;strokeColor=none;fillColor=none;align=left;verticalAlign=top;spacingLeft=4;spacingRight=4;overflow=hidden;rotatable=0;points=[[0,0.5],[1,0.5]];portConstraint=eastwest;whiteSpace=wrap;html=1;" vertex="1" parent="3uChI2uYwqrTZNYXiTaa-110">
          <mxGeometry y="34" width="470" height="86" as="geometry" />
        </mxCell>
        <mxCell id="3uChI2uYwqrTZNYXiTaa-211" value="&lt;div&gt;&lt;span style=&quot;background-color: transparent;&quot;&gt;+ &amp;lt;&amp;lt;constructor&amp;gt;&amp;gt;&amp;nbsp;&lt;/span&gt;&lt;span style=&quot;text-align: center;&quot;&gt;SVGCircle&lt;/span&gt;&lt;span style=&quot;background-color: transparent;&quot;&gt;(_stroke :&amp;nbsp;const RGBAColor&amp;amp;, _strokeWidth :&amp;nbsp;const float&amp;amp;, _fill :&amp;nbsp;const RGBAColor&amp;amp;)&lt;/span&gt;&lt;/div&gt;" style="text;strokeColor=none;fillColor=none;align=left;verticalAlign=top;spacingLeft=4;spacingRight=4;overflow=hidden;rotatable=0;points=[[0,0.5],[1,0.5]];portConstraint=eastwest;whiteSpace=wrap;html=1;" vertex="1" parent="3uChI2uYwqrTZNYXiTaa-110">
          <mxGeometry y="120" width="470" height="40" as="geometry" />
        </mxCell>
        <mxCell id="3uChI2uYwqrTZNYXiTaa-113" value="SVGEllipse" style="swimlane;fontStyle=1;align=center;verticalAlign=top;childLayout=stackLayout;horizontal=1;startSize=26;horizontalStack=0;resizeParent=1;resizeParentMax=0;resizeLast=0;collapsible=1;marginBottom=0;whiteSpace=wrap;html=1;" vertex="1" parent="1">
          <mxGeometry x="730" y="2080" width="470" height="220" as="geometry" />
        </mxCell>
        <mxCell id="3uChI2uYwqrTZNYXiTaa-114" value="&lt;div&gt;&lt;span style=&quot;background-color: transparent; color: light-dark(rgb(0, 0, 0), rgb(255, 255, 255));&quot;&gt;# rx : int&lt;/span&gt;&lt;/div&gt;&lt;div&gt;&lt;br&gt;&lt;/div&gt;&lt;div&gt;# ry: int&lt;/div&gt;" style="text;strokeColor=none;fillColor=none;align=left;verticalAlign=top;spacingLeft=4;spacingRight=4;overflow=hidden;rotatable=0;points=[[0,0.5],[1,0.5]];portConstraint=eastwest;whiteSpace=wrap;html=1;" vertex="1" parent="3uChI2uYwqrTZNYXiTaa-113">
          <mxGeometry y="26" width="470" height="64" as="geometry" />
        </mxCell>
        <mxCell id="3uChI2uYwqrTZNYXiTaa-115" value="" style="line;strokeWidth=1;fillColor=none;align=left;verticalAlign=middle;spacingTop=-1;spacingLeft=3;spacingRight=3;rotatable=0;labelPosition=right;points=[];portConstraint=eastwest;strokeColor=inherit;" vertex="1" parent="3uChI2uYwqrTZNYXiTaa-113">
          <mxGeometry y="90" width="470" height="8" as="geometry" />
        </mxCell>
        <mxCell id="3uChI2uYwqrTZNYXiTaa-116" value="+ &amp;lt;&amp;lt;override&amp;gt;&amp;gt; processAttribute(attributeName: char*, attributeValue: char*) : void&lt;div&gt;&lt;br&gt;&lt;div&gt;+&amp;nbsp;&lt;span style=&quot;background-color: transparent; color: light-dark(rgb(0, 0, 0), rgb(255, 255, 255));&quot;&gt;&amp;lt;&amp;lt;override&amp;gt;&amp;gt;&amp;nbsp;&lt;/span&gt;&lt;span style=&quot;background-color: transparent; color: light-dark(rgb(0, 0, 0), rgb(255, 255, 255));&quot;&gt;draw(graphics: Graphics&amp;amp;) : void&lt;/span&gt;&lt;/div&gt;&lt;/div&gt;&lt;div&gt;&lt;span style=&quot;background-color: transparent; color: light-dark(rgb(0, 0, 0), rgb(255, 255, 255));&quot;&gt;&lt;br&gt;&lt;/span&gt;&lt;/div&gt;&lt;div&gt;&lt;span style=&quot;background-color: transparent; color: light-dark(rgb(0, 0, 0), rgb(255, 255, 255));&quot;&gt;+&amp;nbsp;&lt;/span&gt;&lt;span style=&quot;background-color: transparent; color: light-dark(rgb(0, 0, 0), rgb(255, 255, 255));&quot;&gt;&amp;lt;&amp;lt;constructor&amp;gt;&amp;gt;&amp;nbsp;&lt;/span&gt;&lt;span style=&quot;background-color: transparent; color: light-dark(rgb(0, 0, 0), rgb(255, 255, 255));&quot;&gt;SVGEllipse()&lt;/span&gt;&lt;/div&gt;" style="text;strokeColor=none;fillColor=none;align=left;verticalAlign=top;spacingLeft=4;spacingRight=4;overflow=hidden;rotatable=0;points=[[0,0.5],[1,0.5]];portConstraint=eastwest;whiteSpace=wrap;html=1;" vertex="1" parent="3uChI2uYwqrTZNYXiTaa-113">
          <mxGeometry y="98" width="470" height="82" as="geometry" />
        </mxCell>
        <mxCell id="3uChI2uYwqrTZNYXiTaa-210" value="&lt;div&gt;&lt;span style=&quot;background-color: transparent;&quot;&gt;+ &amp;lt;&amp;lt;constructor&amp;gt;&amp;gt;&amp;nbsp;&lt;/span&gt;&lt;span style=&quot;text-align: center;&quot;&gt;SVGEllipse&lt;/span&gt;&lt;span style=&quot;background-color: transparent;&quot;&gt;(_stroke :&amp;nbsp;const RGBAColor&amp;amp;, _strokeWidth :&amp;nbsp;const float&amp;amp;, _fill :&amp;nbsp;const RGBAColor&amp;amp;)&lt;/span&gt;&lt;/div&gt;" style="text;strokeColor=none;fillColor=none;align=left;verticalAlign=top;spacingLeft=4;spacingRight=4;overflow=hidden;rotatable=0;points=[[0,0.5],[1,0.5]];portConstraint=eastwest;whiteSpace=wrap;html=1;" vertex="1" parent="3uChI2uYwqrTZNYXiTaa-113">
          <mxGeometry y="180" width="470" height="40" as="geometry" />
        </mxCell>
        <mxCell id="3uChI2uYwqrTZNYXiTaa-117" value="SVGLine" style="swimlane;fontStyle=1;align=center;verticalAlign=top;childLayout=stackLayout;horizontal=1;startSize=26;horizontalStack=0;resizeParent=1;resizeParentMax=0;resizeLast=0;collapsible=1;marginBottom=0;whiteSpace=wrap;html=1;" vertex="1" parent="1">
          <mxGeometry x="380" y="1440" width="470" height="210" as="geometry" />
        </mxCell>
        <mxCell id="3uChI2uYwqrTZNYXiTaa-118" value="&lt;div&gt;&lt;span style=&quot;background-color: transparent; color: light-dark(rgb(0, 0, 0), rgb(255, 255, 255));&quot;&gt;- position1 : Point2D&lt;/span&gt;&lt;/div&gt;&lt;div&gt;&lt;br&gt;&lt;/div&gt;&lt;div&gt;- position2 : Point2D&lt;/div&gt;&lt;div&gt;&lt;br&gt;&lt;/div&gt;" style="text;strokeColor=none;fillColor=none;align=left;verticalAlign=top;spacingLeft=4;spacingRight=4;overflow=hidden;rotatable=0;points=[[0,0.5],[1,0.5]];portConstraint=eastwest;whiteSpace=wrap;html=1;" vertex="1" parent="3uChI2uYwqrTZNYXiTaa-117">
          <mxGeometry y="26" width="470" height="54" as="geometry" />
        </mxCell>
        <mxCell id="3uChI2uYwqrTZNYXiTaa-119" value="" style="line;strokeWidth=1;fillColor=none;align=left;verticalAlign=middle;spacingTop=-1;spacingLeft=3;spacingRight=3;rotatable=0;labelPosition=right;points=[];portConstraint=eastwest;strokeColor=inherit;" vertex="1" parent="3uChI2uYwqrTZNYXiTaa-117">
          <mxGeometry y="80" width="470" height="8" as="geometry" />
        </mxCell>
        <mxCell id="3uChI2uYwqrTZNYXiTaa-120" value="+ &amp;lt;&amp;lt;override&amp;gt;&amp;gt;&amp;nbsp;processAttribute(attributeName: char*, attributeValue: char*) : void&lt;div&gt;&lt;br&gt;&lt;div&gt;+&amp;nbsp;&lt;span style=&quot;background-color: transparent; color: light-dark(rgb(0, 0, 0), rgb(255, 255, 255));&quot;&gt;&amp;lt;&amp;lt;override&amp;gt;&amp;gt;&lt;/span&gt;&lt;span style=&quot;background-color: transparent; color: light-dark(rgb(0, 0, 0), rgb(255, 255, 255));&quot;&gt;&amp;nbsp;&lt;/span&gt;&lt;span style=&quot;background-color: transparent; color: light-dark(rgb(0, 0, 0), rgb(255, 255, 255));&quot;&gt;draw(graphics: Graphics&amp;amp;) : void&lt;/span&gt;&lt;/div&gt;&lt;/div&gt;&lt;div&gt;&lt;span style=&quot;background-color: transparent; color: light-dark(rgb(0, 0, 0), rgb(255, 255, 255));&quot;&gt;&lt;br&gt;&lt;/span&gt;&lt;/div&gt;&lt;div&gt;&lt;span style=&quot;background-color: transparent; color: light-dark(rgb(0, 0, 0), rgb(255, 255, 255));&quot;&gt;+&amp;nbsp;&lt;/span&gt;&lt;span style=&quot;background-color: transparent; color: light-dark(rgb(0, 0, 0), rgb(255, 255, 255));&quot;&gt;&amp;lt;&amp;lt;constructor&amp;gt;&amp;gt;&amp;nbsp;&lt;/span&gt;&lt;span style=&quot;background-color: transparent; color: light-dark(rgb(0, 0, 0), rgb(255, 255, 255));&quot;&gt;SVGLine()&lt;/span&gt;&lt;/div&gt;" style="text;strokeColor=none;fillColor=none;align=left;verticalAlign=top;spacingLeft=4;spacingRight=4;overflow=hidden;rotatable=0;points=[[0,0.5],[1,0.5]];portConstraint=eastwest;whiteSpace=wrap;html=1;" vertex="1" parent="3uChI2uYwqrTZNYXiTaa-117">
          <mxGeometry y="88" width="470" height="82" as="geometry" />
        </mxCell>
        <mxCell id="3uChI2uYwqrTZNYXiTaa-212" value="&lt;div&gt;&lt;span style=&quot;background-color: transparent;&quot;&gt;+ &amp;lt;&amp;lt;constructor&amp;gt;&amp;gt;&amp;nbsp;&lt;/span&gt;&lt;span style=&quot;text-align: center;&quot;&gt;SVGLine&lt;/span&gt;&lt;span style=&quot;background-color: transparent;&quot;&gt;(_stroke :&amp;nbsp;const RGBAColor&amp;amp;, _strokeWidth :&amp;nbsp;const float&amp;amp;, _fill :&amp;nbsp;const RGBAColor&amp;amp;)&lt;/span&gt;&lt;/div&gt;" style="text;strokeColor=none;fillColor=none;align=left;verticalAlign=top;spacingLeft=4;spacingRight=4;overflow=hidden;rotatable=0;points=[[0,0.5],[1,0.5]];portConstraint=eastwest;whiteSpace=wrap;html=1;" vertex="1" parent="3uChI2uYwqrTZNYXiTaa-117">
          <mxGeometry y="170" width="470" height="40" as="geometry" />
        </mxCell>
        <mxCell id="3uChI2uYwqrTZNYXiTaa-121" value="SVGPolyline" style="swimlane;fontStyle=1;align=center;verticalAlign=top;childLayout=stackLayout;horizontal=1;startSize=26;horizontalStack=0;resizeParent=1;resizeParentMax=0;resizeLast=0;collapsible=1;marginBottom=0;whiteSpace=wrap;html=1;" vertex="1" parent="1">
          <mxGeometry x="2270" y="1670" width="470" height="180" as="geometry" />
        </mxCell>
        <mxCell id="3uChI2uYwqrTZNYXiTaa-122" value="&lt;div&gt;&lt;span style=&quot;background-color: transparent; color: light-dark(rgb(0, 0, 0), rgb(255, 255, 255));&quot;&gt;- points : string&lt;/span&gt;&lt;/div&gt;&lt;div&gt;&lt;br&gt;&lt;/div&gt;" style="text;strokeColor=none;fillColor=none;align=left;verticalAlign=top;spacingLeft=4;spacingRight=4;overflow=hidden;rotatable=0;points=[[0,0.5],[1,0.5]];portConstraint=eastwest;whiteSpace=wrap;html=1;" vertex="1" parent="3uChI2uYwqrTZNYXiTaa-121">
          <mxGeometry y="26" width="470" height="24" as="geometry" />
        </mxCell>
        <mxCell id="3uChI2uYwqrTZNYXiTaa-123" value="" style="line;strokeWidth=1;fillColor=none;align=left;verticalAlign=middle;spacingTop=-1;spacingLeft=3;spacingRight=3;rotatable=0;labelPosition=right;points=[];portConstraint=eastwest;strokeColor=inherit;" vertex="1" parent="3uChI2uYwqrTZNYXiTaa-121">
          <mxGeometry y="50" width="470" height="8" as="geometry" />
        </mxCell>
        <mxCell id="3uChI2uYwqrTZNYXiTaa-124" value="+&amp;nbsp;&amp;nbsp;&amp;lt;&amp;lt;override&amp;gt;&amp;gt;&amp;nbsp;processAttribute(attributeName: char*, attributeValue: char*) : void&lt;div&gt;&lt;br&gt;&lt;div&gt;+&amp;nbsp;&lt;span style=&quot;background-color: transparent; color: light-dark(rgb(0, 0, 0), rgb(255, 255, 255));&quot;&gt;&amp;nbsp;&lt;/span&gt;&lt;span style=&quot;background-color: transparent; color: light-dark(rgb(0, 0, 0), rgb(255, 255, 255));&quot;&gt;&amp;lt;&amp;lt;override&amp;gt;&amp;gt;&lt;/span&gt;&lt;span style=&quot;background-color: transparent; color: light-dark(rgb(0, 0, 0), rgb(255, 255, 255));&quot;&gt;&amp;nbsp;&lt;/span&gt;&lt;span style=&quot;background-color: transparent; color: light-dark(rgb(0, 0, 0), rgb(255, 255, 255));&quot;&gt;draw(graphics: Graphics&amp;amp;) : void&lt;/span&gt;&lt;/div&gt;&lt;/div&gt;&lt;div&gt;&lt;span style=&quot;background-color: transparent; color: light-dark(rgb(0, 0, 0), rgb(255, 255, 255));&quot;&gt;&lt;br&gt;&lt;/span&gt;&lt;/div&gt;&lt;div&gt;&lt;span style=&quot;background-color: transparent; color: light-dark(rgb(0, 0, 0), rgb(255, 255, 255));&quot;&gt;+ &amp;lt;&amp;lt;constructor&amp;gt;&amp;gt; SVGPolyline()&lt;/span&gt;&lt;/div&gt;" style="text;strokeColor=none;fillColor=none;align=left;verticalAlign=top;spacingLeft=4;spacingRight=4;overflow=hidden;rotatable=0;points=[[0,0.5],[1,0.5]];portConstraint=eastwest;whiteSpace=wrap;html=1;" vertex="1" parent="3uChI2uYwqrTZNYXiTaa-121">
          <mxGeometry y="58" width="470" height="82" as="geometry" />
        </mxCell>
        <mxCell id="3uChI2uYwqrTZNYXiTaa-213" value="&lt;div&gt;&lt;span style=&quot;background-color: transparent;&quot;&gt;+ &amp;lt;&amp;lt;constructor&amp;gt;&amp;gt;&amp;nbsp;&lt;/span&gt;&lt;span style=&quot;text-align: center;&quot;&gt;SVGPolyline&lt;/span&gt;&lt;span style=&quot;background-color: transparent;&quot;&gt;(_stroke :&amp;nbsp;const RGBAColor&amp;amp;, _strokeWidth :&amp;nbsp;const float&amp;amp;, _fill :&amp;nbsp;const RGBAColor&amp;amp;)&lt;/span&gt;&lt;/div&gt;" style="text;strokeColor=none;fillColor=none;align=left;verticalAlign=top;spacingLeft=4;spacingRight=4;overflow=hidden;rotatable=0;points=[[0,0.5],[1,0.5]];portConstraint=eastwest;whiteSpace=wrap;html=1;" vertex="1" parent="3uChI2uYwqrTZNYXiTaa-121">
          <mxGeometry y="140" width="470" height="40" as="geometry" />
        </mxCell>
        <mxCell id="3uChI2uYwqrTZNYXiTaa-125" value="SVGPolygon" style="swimlane;fontStyle=1;align=center;verticalAlign=top;childLayout=stackLayout;horizontal=1;startSize=26;horizontalStack=0;resizeParent=1;resizeParentMax=0;resizeLast=0;collapsible=1;marginBottom=0;whiteSpace=wrap;html=1;" vertex="1" parent="1">
          <mxGeometry x="2100" y="1890" width="470" height="180" as="geometry" />
        </mxCell>
        <mxCell id="3uChI2uYwqrTZNYXiTaa-126" value="&lt;div&gt;&lt;span style=&quot;background-color: transparent; color: light-dark(rgb(0, 0, 0), rgb(255, 255, 255));&quot;&gt;- points : string&lt;/span&gt;&lt;/div&gt;&lt;div&gt;&lt;br&gt;&lt;/div&gt;" style="text;strokeColor=none;fillColor=none;align=left;verticalAlign=top;spacingLeft=4;spacingRight=4;overflow=hidden;rotatable=0;points=[[0,0.5],[1,0.5]];portConstraint=eastwest;whiteSpace=wrap;html=1;" vertex="1" parent="3uChI2uYwqrTZNYXiTaa-125">
          <mxGeometry y="26" width="470" height="24" as="geometry" />
        </mxCell>
        <mxCell id="3uChI2uYwqrTZNYXiTaa-127" value="" style="line;strokeWidth=1;fillColor=none;align=left;verticalAlign=middle;spacingTop=-1;spacingLeft=3;spacingRight=3;rotatable=0;labelPosition=right;points=[];portConstraint=eastwest;strokeColor=inherit;" vertex="1" parent="3uChI2uYwqrTZNYXiTaa-125">
          <mxGeometry y="50" width="470" height="8" as="geometry" />
        </mxCell>
        <mxCell id="3uChI2uYwqrTZNYXiTaa-128" value="+&amp;nbsp;&amp;nbsp;&amp;lt;&amp;lt;override&amp;gt;&amp;gt;&amp;nbsp;processAttribute(attributeName: char*, attributeValue: char*) : void&lt;div&gt;&lt;br&gt;&lt;div&gt;+&amp;nbsp;&lt;span style=&quot;background-color: transparent; color: light-dark(rgb(0, 0, 0), rgb(255, 255, 255));&quot;&gt;&amp;nbsp;&lt;/span&gt;&lt;span style=&quot;background-color: transparent; color: light-dark(rgb(0, 0, 0), rgb(255, 255, 255));&quot;&gt;&amp;lt;&amp;lt;override&amp;gt;&amp;gt;&lt;/span&gt;&lt;span style=&quot;background-color: transparent; color: light-dark(rgb(0, 0, 0), rgb(255, 255, 255));&quot;&gt;&amp;nbsp;&lt;/span&gt;&lt;span style=&quot;background-color: transparent; color: light-dark(rgb(0, 0, 0), rgb(255, 255, 255));&quot;&gt;draw(graphics: Graphics&amp;amp;) : void&lt;/span&gt;&lt;/div&gt;&lt;/div&gt;&lt;div&gt;&lt;span style=&quot;background-color: transparent; color: light-dark(rgb(0, 0, 0), rgb(255, 255, 255));&quot;&gt;&lt;br&gt;&lt;/span&gt;&lt;/div&gt;&lt;div&gt;&lt;span style=&quot;background-color: transparent; color: light-dark(rgb(0, 0, 0), rgb(255, 255, 255));&quot;&gt;+&amp;nbsp;&lt;/span&gt;&lt;span style=&quot;background-color: transparent; color: light-dark(rgb(0, 0, 0), rgb(255, 255, 255));&quot;&gt;&amp;lt;&amp;lt;constructor&amp;gt;&amp;gt;&amp;nbsp;&lt;/span&gt;&lt;span style=&quot;background-color: transparent; color: light-dark(rgb(0, 0, 0), rgb(255, 255, 255));&quot;&gt;SVGPolygon()&lt;/span&gt;&lt;/div&gt;" style="text;strokeColor=none;fillColor=none;align=left;verticalAlign=top;spacingLeft=4;spacingRight=4;overflow=hidden;rotatable=0;points=[[0,0.5],[1,0.5]];portConstraint=eastwest;whiteSpace=wrap;html=1;" vertex="1" parent="3uChI2uYwqrTZNYXiTaa-125">
          <mxGeometry y="58" width="470" height="82" as="geometry" />
        </mxCell>
        <mxCell id="3uChI2uYwqrTZNYXiTaa-214" value="&lt;div&gt;&lt;span style=&quot;background-color: transparent;&quot;&gt;+ &amp;lt;&amp;lt;constructor&amp;gt;&amp;gt;&amp;nbsp;&lt;/span&gt;&lt;span style=&quot;text-align: center;&quot;&gt;SVGPolygon&lt;/span&gt;&lt;span style=&quot;background-color: transparent;&quot;&gt;(_stroke :&amp;nbsp;const RGBAColor&amp;amp;, _strokeWidth :&amp;nbsp;const float&amp;amp;, _fill :&amp;nbsp;const RGBAColor&amp;amp;)&lt;/span&gt;&lt;/div&gt;" style="text;strokeColor=none;fillColor=none;align=left;verticalAlign=top;spacingLeft=4;spacingRight=4;overflow=hidden;rotatable=0;points=[[0,0.5],[1,0.5]];portConstraint=eastwest;whiteSpace=wrap;html=1;" vertex="1" parent="3uChI2uYwqrTZNYXiTaa-125">
          <mxGeometry y="140" width="470" height="40" as="geometry" />
        </mxCell>
        <mxCell id="3uChI2uYwqrTZNYXiTaa-129" value="" style="endArrow=block;endSize=16;endFill=0;html=1;rounded=0;" edge="1" parent="1" source="3uChI2uYwqrTZNYXiTaa-117" target="3uChI2uYwqrTZNYXiTaa-136">
          <mxGeometry x="0.0007" width="160" relative="1" as="geometry">
            <mxPoint x="1530" y="1468" as="sourcePoint" />
            <mxPoint x="1290" y="1763.9783281733744" as="targetPoint" />
            <mxPoint as="offset" />
          </mxGeometry>
        </mxCell>
        <mxCell id="3uChI2uYwqrTZNYXiTaa-130" value="" style="endArrow=block;endSize=16;endFill=0;html=1;rounded=0;" edge="1" parent="1" source="3uChI2uYwqrTZNYXiTaa-121" target="3uChI2uYwqrTZNYXiTaa-136">
          <mxGeometry width="160" relative="1" as="geometry">
            <mxPoint x="1330" y="1268" as="sourcePoint" />
            <mxPoint x="1710" y="1765.5631067961167" as="targetPoint" />
          </mxGeometry>
        </mxCell>
        <mxCell id="3uChI2uYwqrTZNYXiTaa-131" value="" style="endArrow=block;endSize=16;endFill=0;html=1;rounded=0;exitX=0.5;exitY=0;exitDx=0;exitDy=0;" edge="1" parent="1" source="3uChI2uYwqrTZNYXiTaa-125" target="3uChI2uYwqrTZNYXiTaa-136">
          <mxGeometry width="160" relative="1" as="geometry">
            <mxPoint x="1826" y="1638" as="sourcePoint" />
            <mxPoint x="1688.6431226765799" y="1780" as="targetPoint" />
          </mxGeometry>
        </mxCell>
        <mxCell id="3uChI2uYwqrTZNYXiTaa-132" value="" style="endArrow=block;endSize=16;endFill=0;html=1;rounded=0;exitX=0.5;exitY=0;exitDx=0;exitDy=0;" edge="1" parent="1" source="3uChI2uYwqrTZNYXiTaa-106" target="3uChI2uYwqrTZNYXiTaa-136">
          <mxGeometry width="160" relative="1" as="geometry">
            <mxPoint x="1910" y="1748" as="sourcePoint" />
            <mxPoint x="1590.814126394052" y="1780" as="targetPoint" />
          </mxGeometry>
        </mxCell>
        <mxCell id="3uChI2uYwqrTZNYXiTaa-133" value="" style="endArrow=block;endSize=16;endFill=0;html=1;rounded=0;" edge="1" parent="1" source="3uChI2uYwqrTZNYXiTaa-98" target="3uChI2uYwqrTZNYXiTaa-136">
          <mxGeometry width="160" relative="1" as="geometry">
            <mxPoint x="1550" y="1748" as="sourcePoint" />
            <mxPoint x="1495.739856801909" y="1780" as="targetPoint" />
          </mxGeometry>
        </mxCell>
        <mxCell id="3uChI2uYwqrTZNYXiTaa-134" value="" style="endArrow=block;endSize=16;endFill=0;html=1;rounded=0;" edge="1" parent="1" source="3uChI2uYwqrTZNYXiTaa-110" target="3uChI2uYwqrTZNYXiTaa-113">
          <mxGeometry x="-0.0505" y="1" width="160" relative="1" as="geometry">
            <mxPoint x="815" y="1888" as="sourcePoint" />
            <mxPoint x="1390.9851301115236" y="1780" as="targetPoint" />
            <mxPoint as="offset" />
            <Array as="points" />
          </mxGeometry>
        </mxCell>
        <mxCell id="3uChI2uYwqrTZNYXiTaa-135" value="" style="endArrow=block;endSize=16;endFill=0;html=1;rounded=0;exitX=0.5;exitY=0;exitDx=0;exitDy=0;" edge="1" parent="1" source="3uChI2uYwqrTZNYXiTaa-113" target="3uChI2uYwqrTZNYXiTaa-136">
          <mxGeometry width="160" relative="1" as="geometry">
            <mxPoint x="1320" y="1628" as="sourcePoint" />
            <mxPoint x="1290.5018587360591" y="1780" as="targetPoint" />
          </mxGeometry>
        </mxCell>
        <mxCell id="3uChI2uYwqrTZNYXiTaa-136" value="&lt;div style=&quot;&quot;&gt;&lt;span style=&quot;font-weight: normal;&quot;&gt;&amp;lt;&amp;lt;abstract&amp;gt;&amp;gt;&lt;/span&gt;&lt;/div&gt;&lt;div style=&quot;font-weight: 400;&quot;&gt;&lt;b&gt;&lt;i&gt;SVGShape&lt;/i&gt;&lt;/b&gt;&lt;/div&gt;" style="swimlane;fontStyle=1;align=center;verticalAlign=top;childLayout=stackLayout;horizontal=1;startSize=42;horizontalStack=0;resizeParent=1;resizeParentMax=0;resizeLast=0;collapsible=1;marginBottom=0;whiteSpace=wrap;html=1;" vertex="1" parent="1">
          <mxGeometry x="1140" y="1368" width="500" height="620" as="geometry" />
        </mxCell>
        <mxCell id="3uChI2uYwqrTZNYXiTaa-137" value="&lt;div&gt;# transform : Transform&lt;/div&gt;&lt;div&gt;&lt;br&gt;&lt;/div&gt;&lt;div&gt;# position : Point2D&lt;/div&gt;&lt;div&gt;&lt;br&gt;&lt;/div&gt;&lt;div&gt;# stroke : RGBAColor&lt;/div&gt;&lt;div&gt;&lt;br&gt;&lt;/div&gt;&lt;div&gt;# fill : RGBAColor&lt;/div&gt;&lt;div&gt;&lt;br&gt;&lt;/div&gt;&lt;div&gt;# strokeWidth : float&lt;/div&gt;" style="text;strokeColor=none;fillColor=none;align=left;verticalAlign=top;spacingLeft=4;spacingRight=4;overflow=hidden;rotatable=0;points=[[0,0.5],[1,0.5]];portConstraint=eastwest;whiteSpace=wrap;html=1;" vertex="1" parent="3uChI2uYwqrTZNYXiTaa-136">
          <mxGeometry y="42" width="500" height="150" as="geometry" />
        </mxCell>
        <mxCell id="3uChI2uYwqrTZNYXiTaa-138" value="" style="line;strokeWidth=1;fillColor=none;align=left;verticalAlign=middle;spacingTop=-1;spacingLeft=3;spacingRight=3;rotatable=0;labelPosition=right;points=[];portConstraint=eastwest;strokeColor=inherit;" vertex="1" parent="3uChI2uYwqrTZNYXiTaa-136">
          <mxGeometry y="192" width="500" height="8" as="geometry" />
        </mxCell>
        <mxCell id="3uChI2uYwqrTZNYXiTaa-139" value="&lt;div&gt;&lt;div&gt;+&amp;nbsp;&lt;span style=&quot;background-color: transparent; color: light-dark(rgb(0, 0, 0), rgb(255, 255, 255));&quot;&gt;&amp;lt;&amp;lt;constructor&amp;gt;&amp;gt;&amp;nbsp;&lt;/span&gt;&lt;span style=&quot;background-color: transparent; color: light-dark(rgb(0, 0, 0), rgb(255, 255, 255));&quot;&gt;SVGShape()&lt;/span&gt;&lt;/div&gt;&lt;div&gt;&lt;span style=&quot;background-color: transparent; color: light-dark(rgb(0, 0, 0), rgb(255, 255, 255));&quot;&gt;&lt;br&gt;&lt;/span&gt;&lt;/div&gt;&lt;div&gt;&lt;span style=&quot;background-color: transparent;&quot;&gt;&lt;div style=&quot;&quot;&gt;+ &amp;lt;&amp;lt;constructor&amp;gt;&amp;gt; SVGShape(_stroke :&amp;nbsp;&lt;span style=&quot;background-color: transparent; color: light-dark(rgb(0, 0, 0), rgb(255, 255, 255));&quot;&gt;const RGBAColor&amp;amp;&lt;/span&gt;&lt;span style=&quot;background-color: transparent; color: light-dark(rgb(0, 0, 0), rgb(255, 255, 255));&quot;&gt;, _strokeWidth :&amp;nbsp;&lt;/span&gt;&lt;span style=&quot;background-color: transparent; color: light-dark(rgb(0, 0, 0), rgb(255, 255, 255));&quot;&gt;const float&amp;amp;&lt;/span&gt;&lt;span style=&quot;background-color: transparent; color: light-dark(rgb(0, 0, 0), rgb(255, 255, 255));&quot;&gt;, _fill :&amp;nbsp;&lt;/span&gt;&lt;span style=&quot;background-color: transparent; color: light-dark(rgb(0, 0, 0), rgb(255, 255, 255));&quot;&gt;const RGBAColor&amp;amp;&lt;/span&gt;&lt;span style=&quot;background-color: transparent; color: light-dark(rgb(0, 0, 0), rgb(255, 255, 255));&quot;&gt;)&lt;/span&gt;&lt;/div&gt;&lt;/span&gt;&lt;/div&gt;&lt;div&gt;&lt;br&gt;&lt;/div&gt;&lt;div&gt;+ &amp;lt;&amp;lt;virutal&amp;gt;&amp;gt; ~SVGShape()&lt;/div&gt;&lt;/div&gt;&lt;div&gt;&lt;br&gt;&lt;/div&gt;+ &amp;lt;&amp;lt;virtual&amp;gt;&amp;gt; processAttribute(attributeName: char*, attributeValue: char*) : void&lt;div&gt;&lt;br&gt;&lt;/div&gt;&lt;div&gt;+ &amp;lt;&amp;lt;pure virtual&amp;gt;&amp;gt; draw(graphics: Graphics&amp;amp;) : void&lt;/div&gt;&lt;div&gt;&lt;br&gt;&lt;/div&gt;&lt;div&gt;+ setGraphicsTransform(Graphics&amp;amp; graphics) : void&lt;/div&gt;&lt;div&gt;&lt;br&gt;&lt;/div&gt;&lt;div&gt;+ getStrokeWidth() : float&lt;/div&gt;&lt;div&gt;&lt;br&gt;&lt;/div&gt;&lt;div&gt;+ getStroke() : RGBAColor&lt;/div&gt;&lt;div&gt;&lt;br&gt;&lt;/div&gt;&lt;div&gt;+ getFill() : RGBAColor&lt;/div&gt;&lt;div&gt;&lt;br&gt;&lt;/div&gt;&lt;div&gt;+ setStrokeWidth(width : const float&amp;amp;) : void&lt;/div&gt;" style="text;strokeColor=none;fillColor=none;align=left;verticalAlign=top;spacingLeft=4;spacingRight=4;overflow=hidden;rotatable=0;points=[[0,0.5],[1,0.5]];portConstraint=eastwest;whiteSpace=wrap;html=1;" vertex="1" parent="3uChI2uYwqrTZNYXiTaa-136">
          <mxGeometry y="200" width="500" height="300" as="geometry" />
        </mxCell>
        <mxCell id="3uChI2uYwqrTZNYXiTaa-204" value="&lt;div&gt;&lt;span style=&quot;background-color: transparent; color: light-dark(rgb(0, 0, 0), rgb(255, 255, 255));&quot;&gt;+ setStroke(color : const RBGAColor&amp;amp;) : void&lt;/span&gt;&lt;/div&gt;" style="text;strokeColor=none;fillColor=none;align=left;verticalAlign=top;spacingLeft=4;spacingRight=4;overflow=hidden;rotatable=0;points=[[0,0.5],[1,0.5]];portConstraint=eastwest;whiteSpace=wrap;html=1;" vertex="1" parent="3uChI2uYwqrTZNYXiTaa-136">
          <mxGeometry y="500" width="500" height="30" as="geometry" />
        </mxCell>
        <mxCell id="3uChI2uYwqrTZNYXiTaa-205" value="&lt;div&gt;&lt;span style=&quot;background-color: transparent; color: light-dark(rgb(0, 0, 0), rgb(255, 255, 255));&quot;&gt;+ setFill(color : const RBGAColor&amp;amp;) : void&lt;/span&gt;&lt;/div&gt;" style="text;strokeColor=none;fillColor=none;align=left;verticalAlign=top;spacingLeft=4;spacingRight=4;overflow=hidden;rotatable=0;points=[[0,0.5],[1,0.5]];portConstraint=eastwest;whiteSpace=wrap;html=1;" vertex="1" parent="3uChI2uYwqrTZNYXiTaa-136">
          <mxGeometry y="530" width="500" height="30" as="geometry" />
        </mxCell>
        <mxCell id="3uChI2uYwqrTZNYXiTaa-206" value="&lt;div&gt;&lt;span style=&quot;white-space: normal;&quot;&gt;+ setBrushColor() :&amp;nbsp;&lt;/span&gt;&lt;span style=&quot;background-color: transparent; color: light-dark(rgb(0, 0, 0), rgb(255, 255, 255));&quot;&gt;Gdiplus::Color&lt;/span&gt;&lt;/div&gt;" style="text;strokeColor=none;fillColor=none;align=left;verticalAlign=top;spacingLeft=4;spacingRight=4;overflow=hidden;rotatable=0;points=[[0,0.5],[1,0.5]];portConstraint=eastwest;whiteSpace=wrap;html=1;" vertex="1" parent="3uChI2uYwqrTZNYXiTaa-136">
          <mxGeometry y="560" width="500" height="30" as="geometry" />
        </mxCell>
        <mxCell id="3uChI2uYwqrTZNYXiTaa-207" value="&lt;div&gt;&lt;span style=&quot;white-space: normal;&quot;&gt;+ setPenColor() :&amp;nbsp;&lt;/span&gt;&lt;span style=&quot;background-color: transparent; color: light-dark(rgb(0, 0, 0), rgb(255, 255, 255));&quot;&gt;Gdiplus::Color&lt;/span&gt;&lt;/div&gt;" style="text;strokeColor=none;fillColor=none;align=left;verticalAlign=top;spacingLeft=4;spacingRight=4;overflow=hidden;rotatable=0;points=[[0,0.5],[1,0.5]];portConstraint=eastwest;whiteSpace=wrap;html=1;" vertex="1" parent="3uChI2uYwqrTZNYXiTaa-136">
          <mxGeometry y="590" width="500" height="30" as="geometry" />
        </mxCell>
        <mxCell id="3uChI2uYwqrTZNYXiTaa-140" value="&lt;b style=&quot;background-color: transparent; color: light-dark(rgb(0, 0, 0), rgb(255, 255, 255));&quot;&gt;SVGReader&lt;/b&gt;" style="swimlane;fontStyle=1;align=center;verticalAlign=top;childLayout=stackLayout;horizontal=1;startSize=30;horizontalStack=0;resizeParent=1;resizeParentMax=0;resizeLast=0;collapsible=1;marginBottom=0;whiteSpace=wrap;html=1;" vertex="1" parent="1">
          <mxGeometry x="1080" y="210" width="630" height="920" as="geometry" />
        </mxCell>
        <mxCell id="3uChI2uYwqrTZNYXiTaa-141" value="&lt;div&gt;&lt;span style=&quot;background-color: transparent; color: light-dark(rgb(0, 0, 0), rgb(255, 255, 255));&quot;&gt;- hInstance : HINSTANCE&lt;/span&gt;&lt;/div&gt;&lt;div&gt;&lt;br&gt;&lt;/div&gt;&lt;div&gt;- nCmdShow : INT&lt;/div&gt;&lt;div&gt;&lt;br&gt;&lt;/div&gt;&lt;div&gt;-&amp;nbsp;gdiplusStartupInput : GdiplusStartupInput&lt;/div&gt;&lt;div&gt;&lt;br&gt;&lt;/div&gt;&lt;div&gt;-&amp;nbsp;gdiplusToken :&amp;nbsp;ULONG_PTR&lt;/div&gt;&lt;div&gt;&lt;br&gt;&lt;/div&gt;&lt;div&gt;- hWnd : HWND&lt;/div&gt;&lt;div&gt;&lt;br&gt;&lt;/div&gt;&lt;div&gt;- msg : MSG&lt;/div&gt;&lt;div&gt;&lt;br&gt;&lt;/div&gt;&lt;div&gt;- curFileName : string&lt;/div&gt;&lt;div&gt;&lt;br&gt;&lt;/div&gt;&lt;div&gt;- shapes : vector&amp;lt;SVGShape*&amp;gt;&lt;/div&gt;&lt;div&gt;&lt;br&gt;&lt;/div&gt;&lt;div&gt;- x : int&lt;/div&gt;&lt;div&gt;&lt;br&gt;&lt;/div&gt;&lt;div&gt;- y : int&lt;/div&gt;&lt;div&gt;&lt;br&gt;&lt;/div&gt;&lt;div&gt;- scale : float&lt;/div&gt;&lt;div&gt;&lt;br&gt;&lt;/div&gt;" style="text;strokeColor=none;fillColor=none;align=left;verticalAlign=top;spacingLeft=4;spacingRight=4;overflow=hidden;rotatable=0;points=[[0,0.5],[1,0.5]];portConstraint=eastwest;whiteSpace=wrap;html=1;" vertex="1" parent="3uChI2uYwqrTZNYXiTaa-140">
          <mxGeometry y="30" width="630" height="310" as="geometry" />
        </mxCell>
        <mxCell id="3uChI2uYwqrTZNYXiTaa-142" value="" style="line;strokeWidth=1;fillColor=none;align=left;verticalAlign=middle;spacingTop=-1;spacingLeft=3;spacingRight=3;rotatable=0;labelPosition=right;points=[];portConstraint=eastwest;strokeColor=inherit;" vertex="1" parent="3uChI2uYwqrTZNYXiTaa-140">
          <mxGeometry y="340" width="630" height="8" as="geometry" />
        </mxCell>
        <mxCell id="3uChI2uYwqrTZNYXiTaa-143" value="&lt;div&gt;&lt;div&gt;&lt;div&gt;- &amp;lt;&amp;lt;friend&amp;gt;&amp;gt; WndProc(hWnd : HWND, message : UINT, wParam : WPARAM, lParam : LPARAM) :&amp;nbsp; LRESULT&amp;nbsp;&lt;/div&gt;&lt;div&gt;&lt;br&gt;&lt;/div&gt;&lt;div&gt;- &amp;lt;&amp;lt;friend&amp;gt;&amp;gt; DlgProc(hWnd : HWND, message : UINT, wParam : WPARAM, lParam : LPARAM) :&amp;nbsp; LRESULT&amp;nbsp;&lt;/div&gt;&lt;/div&gt;&lt;div&gt;&lt;br&gt;&lt;/div&gt;&lt;div&gt;-&amp;nbsp;&lt;span style=&quot;background-color: transparent; color: light-dark(rgb(0, 0, 0), rgb(255, 255, 255));&quot;&gt;&amp;lt;&amp;lt;constructor&amp;gt;&amp;gt;&amp;nbsp;&lt;/span&gt;&lt;span style=&quot;background-color: transparent; color: light-dark(rgb(0, 0, 0), rgb(255, 255, 255));&quot;&gt;SVGReader()&lt;/span&gt;&lt;/div&gt;&lt;div&gt;&lt;br&gt;&lt;/div&gt;&lt;div&gt;- &amp;lt;&amp;lt;constructor&amp;gt;&amp;gt; SVGReader(const SVGReader&amp;amp;)&lt;/div&gt;&lt;div&gt;&lt;br&gt;&lt;/div&gt;&lt;div&gt;- &amp;lt;&amp;lt;&lt;span style=&quot;background-color: transparent; color: light-dark(rgb(0, 0, 0), rgb(255, 255, 255));&quot;&gt;operator&lt;/span&gt;&lt;span style=&quot;background-color: transparent; color: light-dark(rgb(0, 0, 0), rgb(255, 255, 255));&quot;&gt;&amp;gt;&amp;gt; =(const SVGReader&amp;amp;) : SVGReader&amp;amp;&lt;/span&gt;&lt;/div&gt;&lt;div&gt;&lt;span style=&quot;background-color: transparent; color: light-dark(rgb(0, 0, 0), rgb(255, 255, 255));&quot;&gt;&lt;br&gt;&lt;/span&gt;&lt;/div&gt;&lt;div&gt;&lt;span style=&quot;background-color: transparent; color: light-dark(rgb(0, 0, 0), rgb(255, 255, 255));&quot;&gt;- ~SVGReader()&lt;/span&gt;&lt;/div&gt;&lt;/div&gt;&lt;div&gt;&lt;span style=&quot;background-color: transparent; color: light-dark(rgb(0, 0, 0), rgb(255, 255, 255));&quot;&gt;&lt;br&gt;&lt;/span&gt;&lt;/div&gt;&lt;div&gt;&lt;span style=&quot;background-color: transparent; color: light-dark(rgb(0, 0, 0), rgb(255, 255, 255));&quot;&gt;+ &amp;lt;&amp;lt;static&amp;gt;&amp;gt; getInstance() : SVGReader&amp;amp;&lt;/span&gt;&lt;/div&gt;&lt;div&gt;&lt;br&gt;&lt;/div&gt;&lt;div&gt;+ setWinParams(hInstance :&amp;nbsp;&lt;span style=&quot;background-color: transparent; color: light-dark(rgb(0, 0, 0), rgb(255, 255, 255));&quot;&gt;HINSTANCE&lt;/span&gt;&lt;span style=&quot;background-color: transparent; color: light-dark(rgb(0, 0, 0), rgb(255, 255, 255));&quot;&gt;&amp;nbsp;&lt;/span&gt;&lt;span style=&quot;background-color: transparent; color: light-dark(rgb(0, 0, 0), rgb(255, 255, 255));&quot;&gt;, nCmdShow : INT) : void&lt;/span&gt;&lt;/div&gt;&lt;div&gt;&lt;span style=&quot;background-color: transparent; color: light-dark(rgb(0, 0, 0), rgb(255, 255, 255));&quot;&gt;&lt;br&gt;&lt;/span&gt;&lt;/div&gt;&lt;div&gt;&lt;span style=&quot;background-color: transparent; color: light-dark(rgb(0, 0, 0), rgb(255, 255, 255));&quot;&gt;+&amp;nbsp;&lt;/span&gt;&lt;span style=&quot;background-color: transparent;&quot;&gt;init(fileName :&amp;nbsp;&lt;/span&gt;&lt;span style=&quot;background-color: transparent; color: light-dark(rgb(0, 0, 0), rgb(255, 255, 255));&quot;&gt;string&lt;/span&gt;&lt;span style=&quot;background-color: transparent; color: light-dark(rgb(0, 0, 0), rgb(255, 255, 255));&quot;&gt;) : void&lt;/span&gt;&lt;/div&gt;&lt;div&gt;&lt;span style=&quot;background-color: transparent; color: light-dark(rgb(0, 0, 0), rgb(255, 255, 255));&quot;&gt;&lt;br&gt;&lt;/span&gt;&lt;/div&gt;&lt;div&gt;&lt;span style=&quot;background-color: transparent; color: light-dark(rgb(0, 0, 0), rgb(255, 255, 255));&quot;&gt;+ messageLoop() : void&lt;/span&gt;&lt;/div&gt;&lt;div&gt;&lt;span style=&quot;background-color: transparent; color: light-dark(rgb(0, 0, 0), rgb(255, 255, 255));&quot;&gt;&lt;br&gt;&lt;/span&gt;&lt;/div&gt;&lt;div&gt;&lt;span style=&quot;background-color: transparent; color: light-dark(rgb(0, 0, 0), rgb(255, 255, 255));&quot;&gt;+ cleanup() : INT&lt;/span&gt;&lt;/div&gt;&lt;div&gt;&lt;span style=&quot;background-color: transparent; color: light-dark(rgb(0, 0, 0), rgb(255, 255, 255));&quot;&gt;&lt;br&gt;&lt;/span&gt;&lt;/div&gt;&lt;div&gt;&lt;span style=&quot;background-color: transparent; color: light-dark(rgb(0, 0, 0), rgb(255, 255, 255));&quot;&gt;+ clearShapes() : void&lt;/span&gt;&lt;/div&gt;&lt;div&gt;&lt;span style=&quot;background-color: transparent; color: light-dark(rgb(0, 0, 0), rgb(255, 255, 255));&quot;&gt;&lt;br&gt;&lt;/span&gt;&lt;/div&gt;&lt;div&gt;&lt;span style=&quot;background-color: transparent; color: light-dark(rgb(0, 0, 0), rgb(255, 255, 255));&quot;&gt;+ getX() : int&lt;/span&gt;&lt;/div&gt;&lt;div&gt;&lt;span style=&quot;background-color: transparent; color: light-dark(rgb(0, 0, 0), rgb(255, 255, 255));&quot;&gt;&lt;br&gt;&lt;/span&gt;&lt;/div&gt;&lt;div&gt;&lt;span style=&quot;background-color: transparent; color: light-dark(rgb(0, 0, 0), rgb(255, 255, 255));&quot;&gt;+ getY() : int&lt;/span&gt;&lt;/div&gt;&lt;div&gt;&lt;span style=&quot;background-color: transparent; color: light-dark(rgb(0, 0, 0), rgb(255, 255, 255));&quot;&gt;&lt;br&gt;&lt;/span&gt;&lt;/div&gt;&lt;div&gt;&lt;span style=&quot;background-color: transparent; color: light-dark(rgb(0, 0, 0), rgb(255, 255, 255));&quot;&gt;+ getScale() : float&lt;/span&gt;&lt;/div&gt;&lt;div&gt;&lt;span style=&quot;background-color: transparent; color: light-dark(rgb(0, 0, 0), rgb(255, 255, 255));&quot;&gt;&lt;br&gt;&lt;/span&gt;&lt;/div&gt;&lt;div&gt;&lt;span style=&quot;background-color: transparent; color: light-dark(rgb(0, 0, 0), rgb(255, 255, 255));&quot;&gt;+ setScale(val : float) : void&lt;/span&gt;&lt;/div&gt;&lt;div&gt;&lt;span style=&quot;background-color: transparent; color: light-dark(rgb(0, 0, 0), rgb(255, 255, 255));&quot;&gt;&lt;br&gt;&lt;/span&gt;&lt;/div&gt;&lt;div&gt;&lt;span style=&quot;background-color: transparent; color: light-dark(rgb(0, 0, 0), rgb(255, 255, 255));&quot;&gt;+ openFile() : void&lt;/span&gt;&lt;/div&gt;&lt;div&gt;&lt;span style=&quot;background-color: transparent; color: light-dark(rgb(0, 0, 0), rgb(255, 255, 255));&quot;&gt;&lt;br&gt;&lt;/span&gt;&lt;/div&gt;&lt;div&gt;&lt;span style=&quot;background-color: transparent; color: light-dark(rgb(0, 0, 0), rgb(255, 255, 255));&quot;&gt;+ processXML() : void&lt;/span&gt;&lt;/div&gt;&lt;div&gt;&lt;span style=&quot;background-color: transparent; color: light-dark(rgb(0, 0, 0), rgb(255, 255, 255));&quot;&gt;&lt;br&gt;&lt;/span&gt;&lt;/div&gt;&lt;div&gt;&lt;span style=&quot;background-color: transparent; color: light-dark(rgb(0, 0, 0), rgb(255, 255, 255));&quot;&gt;+&amp;nbsp;&lt;/span&gt;&lt;span style=&quot;background-color: transparent;&quot;&gt;render(graphics :&amp;nbsp;&lt;/span&gt;&lt;span style=&quot;background-color: transparent; color: light-dark(rgb(0, 0, 0), rgb(255, 255, 255));&quot;&gt;Graphics&amp;amp;&lt;/span&gt;&lt;span style=&quot;background-color: transparent; color: light-dark(rgb(0, 0, 0), rgb(255, 255, 255));&quot;&gt;) : void&lt;/span&gt;&lt;/div&gt;&lt;div&gt;&lt;span style=&quot;background-color: transparent; color: light-dark(rgb(0, 0, 0), rgb(255, 255, 255));&quot;&gt;&lt;br&gt;&lt;/span&gt;&lt;/div&gt;&lt;div&gt;&lt;span style=&quot;background-color: transparent;&quot;&gt;+ showCmdNoArgumentBox() : void&lt;/span&gt;&lt;/div&gt;&lt;div&gt;&lt;span style=&quot;background-color: transparent; color: light-dark(rgb(0, 0, 0), rgb(255, 255, 255));&quot;&gt;&lt;br&gt;&lt;/span&gt;&lt;/div&gt;&lt;div&gt;&lt;br&gt;&lt;/div&gt;" style="text;strokeColor=none;fillColor=none;align=left;verticalAlign=top;spacingLeft=4;spacingRight=4;overflow=hidden;rotatable=0;points=[[0,0.5],[1,0.5]];portConstraint=eastwest;whiteSpace=wrap;html=1;" vertex="1" parent="3uChI2uYwqrTZNYXiTaa-140">
          <mxGeometry y="348" width="630" height="572" as="geometry" />
        </mxCell>
        <mxCell id="3uChI2uYwqrTZNYXiTaa-144" value="" style="endArrow=diamondThin;endFill=1;endSize=24;html=1;rounded=0;" edge="1" parent="1" source="3uChI2uYwqrTZNYXiTaa-102" target="3uChI2uYwqrTZNYXiTaa-136">
          <mxGeometry width="160" relative="1" as="geometry">
            <mxPoint x="1610" y="1308" as="sourcePoint" />
            <mxPoint x="1450" y="1308" as="targetPoint" />
          </mxGeometry>
        </mxCell>
        <mxCell id="3uChI2uYwqrTZNYXiTaa-145" value="" style="endArrow=diamondThin;endFill=1;endSize=24;html=1;rounded=0;" edge="1" parent="1" source="3uChI2uYwqrTZNYXiTaa-94" target="3uChI2uYwqrTZNYXiTaa-136">
          <mxGeometry width="160" relative="1" as="geometry">
            <mxPoint x="1293" y="1258" as="sourcePoint" />
            <mxPoint x="1140" y="1418" as="targetPoint" />
          </mxGeometry>
        </mxCell>
        <mxCell id="3uChI2uYwqrTZNYXiTaa-146" value="" style="endArrow=diamondThin;endFill=1;endSize=24;html=1;rounded=0;" edge="1" parent="1" source="3uChI2uYwqrTZNYXiTaa-136" target="3uChI2uYwqrTZNYXiTaa-140">
          <mxGeometry width="160" relative="1" as="geometry">
            <mxPoint x="1710" y="1518" as="sourcePoint" />
            <mxPoint x="1550" y="1518" as="targetPoint" />
          </mxGeometry>
        </mxCell>
        <mxCell id="3uChI2uYwqrTZNYXiTaa-147" value="" style="endArrow=diamondThin;endFill=1;endSize=24;html=1;rounded=0;" edge="1" parent="1" source="3uChI2uYwqrTZNYXiTaa-102" target="3uChI2uYwqrTZNYXiTaa-117">
          <mxGeometry width="160" relative="1" as="geometry">
            <mxPoint x="800" y="1388" as="sourcePoint" />
            <mxPoint x="960" y="1388" as="targetPoint" />
          </mxGeometry>
        </mxCell>
        <mxCell id="3uChI2uYwqrTZNYXiTaa-148" value="&lt;div style=&quot;font-weight: 400;&quot;&gt;&lt;b&gt;Transform&lt;/b&gt;&lt;/div&gt;" style="swimlane;fontStyle=1;align=center;verticalAlign=top;childLayout=stackLayout;horizontal=1;startSize=30;horizontalStack=0;resizeParent=1;resizeParentMax=0;resizeLast=0;collapsible=1;marginBottom=0;whiteSpace=wrap;html=1;" vertex="1" parent="1">
          <mxGeometry x="1880" y="818" width="500" height="210" as="geometry" />
        </mxCell>
        <mxCell id="3uChI2uYwqrTZNYXiTaa-149" value="&lt;div&gt;-&amp;nbsp;&lt;span style=&quot;background-color: transparent; color: light-dark(rgb(0, 0, 0), rgb(255, 255, 255));&quot;&gt;transformAttributeList : vector&amp;lt;TransformAttribute*&amp;gt;&lt;/span&gt;&lt;/div&gt;" style="text;strokeColor=none;fillColor=none;align=left;verticalAlign=top;spacingLeft=4;spacingRight=4;overflow=hidden;rotatable=0;points=[[0,0.5],[1,0.5]];portConstraint=eastwest;whiteSpace=wrap;html=1;" vertex="1" parent="3uChI2uYwqrTZNYXiTaa-148">
          <mxGeometry y="30" width="500" height="30" as="geometry" />
        </mxCell>
        <mxCell id="3uChI2uYwqrTZNYXiTaa-150" value="" style="line;strokeWidth=1;fillColor=none;align=left;verticalAlign=middle;spacingTop=-1;spacingLeft=3;spacingRight=3;rotatable=0;labelPosition=right;points=[];portConstraint=eastwest;strokeColor=inherit;" vertex="1" parent="3uChI2uYwqrTZNYXiTaa-148">
          <mxGeometry y="60" width="500" height="8" as="geometry" />
        </mxCell>
        <mxCell id="3uChI2uYwqrTZNYXiTaa-151" value="&lt;div&gt;&lt;div&gt;+&amp;nbsp;&lt;span style=&quot;background-color: transparent; color: light-dark(rgb(0, 0, 0), rgb(255, 255, 255));&quot;&gt;&amp;lt;&amp;lt;constructor&amp;gt;&amp;gt;&amp;nbsp;&lt;/span&gt;&lt;span style=&quot;text-align: center;&quot;&gt;Transform&lt;/span&gt;&lt;span style=&quot;background-color: transparent; color: light-dark(rgb(0, 0, 0), rgb(255, 255, 255));&quot;&gt;()&lt;/span&gt;&lt;/div&gt;&lt;div&gt;&lt;br&gt;&lt;/div&gt;&lt;div&gt;+ ~&lt;span style=&quot;text-align: center;&quot;&gt;Transform&lt;/span&gt;()&lt;/div&gt;&lt;/div&gt;&lt;div&gt;&lt;br&gt;&lt;/div&gt;&lt;div&gt;-&amp;nbsp;&lt;span style=&quot;background-color: transparent; color: light-dark(rgb(0, 0, 0), rgb(255, 255, 255));&quot;&gt;parseParameters(paramStr : const string&amp;amp;, values :&amp;nbsp;&lt;/span&gt;&lt;span style=&quot;background-color: transparent; color: light-dark(rgb(0, 0, 0), rgb(255, 255, 255));&quot;&gt;vector&amp;lt;float&amp;gt;&amp;amp;&lt;/span&gt;&lt;span style=&quot;background-color: transparent; color: light-dark(rgb(0, 0, 0), rgb(255, 255, 255));&quot;&gt;) : void&lt;/span&gt;&lt;/div&gt;&lt;div&gt;&lt;br&gt;&lt;/div&gt;&lt;div&gt;&lt;span style=&quot;background-color: transparent; color: light-dark(rgb(0, 0, 0), rgb(255, 255, 255));&quot;&gt;+ parseTransform(transformStr :&amp;nbsp;&lt;/span&gt;&lt;span style=&quot;background-color: transparent; color: light-dark(rgb(0, 0, 0), rgb(255, 255, 255));&quot;&gt;const string&amp;amp;&lt;/span&gt;&lt;span style=&quot;background-color: transparent; color: light-dark(rgb(0, 0, 0), rgb(255, 255, 255));&quot;&gt;) : void&lt;/span&gt;&lt;/div&gt;&lt;div&gt;&lt;span style=&quot;background-color: transparent; color: light-dark(rgb(0, 0, 0), rgb(255, 255, 255));&quot;&gt;&lt;br&gt;&lt;/span&gt;&lt;/div&gt;&lt;div&gt;+ applyToGraphics(g :&amp;nbsp;&lt;span style=&quot;background-color: transparent; color: light-dark(rgb(0, 0, 0), rgb(255, 255, 255));&quot;&gt;Graphics*&lt;/span&gt;&lt;span style=&quot;background-color: transparent; color: light-dark(rgb(0, 0, 0), rgb(255, 255, 255));&quot;&gt;) : void&lt;/span&gt;&lt;/div&gt;" style="text;strokeColor=none;fillColor=none;align=left;verticalAlign=top;spacingLeft=4;spacingRight=4;overflow=hidden;rotatable=0;points=[[0,0.5],[1,0.5]];portConstraint=eastwest;whiteSpace=wrap;html=1;" vertex="1" parent="3uChI2uYwqrTZNYXiTaa-148">
          <mxGeometry y="68" width="500" height="142" as="geometry" />
        </mxCell>
        <mxCell id="3uChI2uYwqrTZNYXiTaa-152" value="&lt;div style=&quot;&quot;&gt;&lt;span style=&quot;text-align: left; font-weight: normal;&quot;&gt;&amp;lt;&amp;lt;interface&amp;gt;&amp;gt;&lt;/span&gt;&lt;/div&gt;&lt;div style=&quot;&quot;&gt;&lt;span style=&quot;text-align: left;&quot;&gt;TransformAttribute&amp;nbsp;&lt;/span&gt;&lt;/div&gt;" style="swimlane;fontStyle=1;align=center;verticalAlign=top;childLayout=stackLayout;horizontal=1;startSize=40;horizontalStack=0;resizeParent=1;resizeParentMax=0;resizeLast=0;collapsible=1;marginBottom=0;whiteSpace=wrap;html=1;" vertex="1" parent="1">
          <mxGeometry x="2020" y="568" width="500" height="110" as="geometry" />
        </mxCell>
        <mxCell id="3uChI2uYwqrTZNYXiTaa-154" value="" style="line;strokeWidth=1;fillColor=none;align=left;verticalAlign=middle;spacingTop=-1;spacingLeft=3;spacingRight=3;rotatable=0;labelPosition=right;points=[];portConstraint=eastwest;strokeColor=inherit;" vertex="1" parent="3uChI2uYwqrTZNYXiTaa-152">
          <mxGeometry y="40" width="500" height="8" as="geometry" />
        </mxCell>
        <mxCell id="3uChI2uYwqrTZNYXiTaa-155" value="&lt;div&gt;&lt;div&gt;&lt;span style=&quot;background-color: transparent; color: light-dark(rgb(0, 0, 0), rgb(255, 255, 255));&quot;&gt;+ &amp;lt;&amp;lt;virtual&amp;gt;&amp;gt; ~&lt;/span&gt;&lt;span style=&quot;background-color: transparent; color: light-dark(rgb(0, 0, 0), rgb(255, 255, 255)); text-align: center;&quot;&gt;TransformAttribute&lt;/span&gt;&lt;span style=&quot;background-color: transparent; color: light-dark(rgb(0, 0, 0), rgb(255, 255, 255));&quot;&gt;()&lt;/span&gt;&lt;/div&gt;&lt;/div&gt;&lt;div&gt;&lt;br&gt;&lt;/div&gt;&lt;div&gt;+ &amp;lt;&amp;lt;pure virtual&amp;gt;&amp;gt; applyToGraphics(g : Graphics*) : void&lt;/div&gt;" style="text;strokeColor=none;fillColor=none;align=left;verticalAlign=top;spacingLeft=4;spacingRight=4;overflow=hidden;rotatable=0;points=[[0,0.5],[1,0.5]];portConstraint=eastwest;whiteSpace=wrap;html=1;" vertex="1" parent="3uChI2uYwqrTZNYXiTaa-152">
          <mxGeometry y="48" width="500" height="62" as="geometry" />
        </mxCell>
        <mxCell id="3uChI2uYwqrTZNYXiTaa-156" style="edgeStyle=orthogonalEdgeStyle;rounded=0;orthogonalLoop=1;jettySize=auto;html=1;entryX=0.536;entryY=0.002;entryDx=0;entryDy=0;entryPerimeter=0;endArrow=diamondThin;endFill=1;endSize=24;" edge="1" parent="1" source="3uChI2uYwqrTZNYXiTaa-152" target="3uChI2uYwqrTZNYXiTaa-148">
          <mxGeometry relative="1" as="geometry" />
        </mxCell>
        <mxCell id="3uChI2uYwqrTZNYXiTaa-157" style="edgeStyle=orthogonalEdgeStyle;rounded=0;orthogonalLoop=1;jettySize=auto;html=1;entryX=0.903;entryY=-0.004;entryDx=0;entryDy=0;entryPerimeter=0;endArrow=diamondThin;endFill=1;endSize=24;" edge="1" parent="1" source="3uChI2uYwqrTZNYXiTaa-148" target="3uChI2uYwqrTZNYXiTaa-136">
          <mxGeometry relative="1" as="geometry">
            <Array as="points">
              <mxPoint x="1760" y="923" />
              <mxPoint x="1760" y="1328" />
              <mxPoint x="1592" y="1328" />
            </Array>
          </mxGeometry>
        </mxCell>
        <mxCell id="3uChI2uYwqrTZNYXiTaa-158" value="&lt;div style=&quot;&quot;&gt;&lt;span style=&quot;text-align: left; background-color: transparent; color: light-dark(rgb(0, 0, 0), rgb(255, 255, 255));&quot;&gt;TransformTranslate&amp;nbsp;&lt;/span&gt;&lt;/div&gt;" style="swimlane;fontStyle=1;align=center;verticalAlign=top;childLayout=stackLayout;horizontal=1;startSize=30;horizontalStack=0;resizeParent=1;resizeParentMax=0;resizeLast=0;collapsible=1;marginBottom=0;whiteSpace=wrap;html=1;" vertex="1" parent="1">
          <mxGeometry x="2750" y="258" width="330" height="256" as="geometry" />
        </mxCell>
        <mxCell id="3uChI2uYwqrTZNYXiTaa-159" value="&lt;div&gt;- translateX : float&lt;/div&gt;" style="text;strokeColor=none;fillColor=none;align=left;verticalAlign=top;spacingLeft=4;spacingRight=4;overflow=hidden;rotatable=0;points=[[0,0.5],[1,0.5]];portConstraint=eastwest;whiteSpace=wrap;html=1;" vertex="1" parent="3uChI2uYwqrTZNYXiTaa-158">
          <mxGeometry y="30" width="330" height="30" as="geometry" />
        </mxCell>
        <mxCell id="3uChI2uYwqrTZNYXiTaa-160" value="&lt;div&gt;- translateY : float&lt;/div&gt;" style="text;strokeColor=none;fillColor=none;align=left;verticalAlign=top;spacingLeft=4;spacingRight=4;overflow=hidden;rotatable=0;points=[[0,0.5],[1,0.5]];portConstraint=eastwest;whiteSpace=wrap;html=1;" vertex="1" parent="3uChI2uYwqrTZNYXiTaa-158">
          <mxGeometry y="60" width="330" height="30" as="geometry" />
        </mxCell>
        <mxCell id="3uChI2uYwqrTZNYXiTaa-161" value="" style="line;strokeWidth=1;fillColor=none;align=left;verticalAlign=middle;spacingTop=-1;spacingLeft=3;spacingRight=3;rotatable=0;labelPosition=right;points=[];portConstraint=eastwest;strokeColor=inherit;" vertex="1" parent="3uChI2uYwqrTZNYXiTaa-158">
          <mxGeometry y="90" width="330" height="8" as="geometry" />
        </mxCell>
        <mxCell id="3uChI2uYwqrTZNYXiTaa-162" value="&lt;div&gt;&lt;div&gt;&lt;span style=&quot;background-color: transparent; color: light-dark(rgb(0, 0, 0), rgb(255, 255, 255));&quot;&gt;+ &amp;lt;&amp;lt;constructor&amp;gt;&amp;gt; TransformTranslate()&lt;/span&gt;&lt;/div&gt;&lt;/div&gt;" style="text;strokeColor=none;fillColor=none;align=left;verticalAlign=top;spacingLeft=4;spacingRight=4;overflow=hidden;rotatable=0;points=[[0,0.5],[1,0.5]];portConstraint=eastwest;whiteSpace=wrap;html=1;" vertex="1" parent="3uChI2uYwqrTZNYXiTaa-158">
          <mxGeometry y="98" width="330" height="32" as="geometry" />
        </mxCell>
        <mxCell id="3uChI2uYwqrTZNYXiTaa-163" value="&lt;div&gt;&lt;div&gt;&lt;span style=&quot;background-color: transparent; color: light-dark(rgb(0, 0, 0), rgb(255, 255, 255));&quot;&gt;+ &amp;lt;&amp;lt;constructor&amp;gt;&amp;gt; TransformTranslate(x : float)&lt;/span&gt;&lt;/div&gt;&lt;/div&gt;" style="text;strokeColor=none;fillColor=none;align=left;verticalAlign=top;spacingLeft=4;spacingRight=4;overflow=hidden;rotatable=0;points=[[0,0.5],[1,0.5]];portConstraint=eastwest;whiteSpace=wrap;html=1;" vertex="1" parent="3uChI2uYwqrTZNYXiTaa-158">
          <mxGeometry y="130" width="330" height="32" as="geometry" />
        </mxCell>
        <mxCell id="3uChI2uYwqrTZNYXiTaa-164" value="&lt;div&gt;&lt;div&gt;&lt;span style=&quot;background-color: transparent; color: light-dark(rgb(0, 0, 0), rgb(255, 255, 255));&quot;&gt;+ &amp;lt;&amp;lt;constructor&amp;gt;&amp;gt; TransformTranslate(x : float, y : float)&lt;/span&gt;&lt;/div&gt;&lt;/div&gt;" style="text;strokeColor=none;fillColor=none;align=left;verticalAlign=top;spacingLeft=4;spacingRight=4;overflow=hidden;rotatable=0;points=[[0,0.5],[1,0.5]];portConstraint=eastwest;whiteSpace=wrap;html=1;" vertex="1" parent="3uChI2uYwqrTZNYXiTaa-158">
          <mxGeometry y="162" width="330" height="32" as="geometry" />
        </mxCell>
        <mxCell id="3uChI2uYwqrTZNYXiTaa-165" value="&lt;div&gt;&lt;div&gt;&lt;span style=&quot;background-color: transparent; color: light-dark(rgb(0, 0, 0), rgb(255, 255, 255));&quot;&gt;+ &amp;lt;&amp;lt;override&amp;gt;&amp;gt; ~&lt;/span&gt;TransformTranslate&lt;span style=&quot;background-color: transparent; color: light-dark(rgb(0, 0, 0), rgb(255, 255, 255));&quot;&gt;()&lt;/span&gt;&lt;/div&gt;&lt;/div&gt;&lt;div&gt;&lt;br&gt;&lt;/div&gt;&lt;div&gt;+ &amp;lt;&amp;lt;override&amp;gt;&amp;gt; applyToGraphics(g : Graphics*) : void&lt;/div&gt;" style="text;strokeColor=none;fillColor=none;align=left;verticalAlign=top;spacingLeft=4;spacingRight=4;overflow=hidden;rotatable=0;points=[[0,0.5],[1,0.5]];portConstraint=eastwest;whiteSpace=wrap;html=1;" vertex="1" parent="3uChI2uYwqrTZNYXiTaa-158">
          <mxGeometry y="194" width="330" height="62" as="geometry" />
        </mxCell>
        <mxCell id="3uChI2uYwqrTZNYXiTaa-166" value="&lt;div style=&quot;&quot;&gt;&lt;span style=&quot;text-align: left; background-color: transparent; color: light-dark(rgb(0, 0, 0), rgb(255, 255, 255));&quot;&gt;TransformScale&amp;nbsp;&lt;/span&gt;&lt;/div&gt;" style="swimlane;fontStyle=1;align=center;verticalAlign=top;childLayout=stackLayout;horizontal=1;startSize=30;horizontalStack=0;resizeParent=1;resizeParentMax=0;resizeLast=0;collapsible=1;marginBottom=0;whiteSpace=wrap;html=1;" vertex="1" parent="1">
          <mxGeometry x="2750" y="542" width="330" height="256" as="geometry" />
        </mxCell>
        <mxCell id="3uChI2uYwqrTZNYXiTaa-167" value="&lt;div&gt;- scaleX: float&lt;/div&gt;" style="text;strokeColor=none;fillColor=none;align=left;verticalAlign=top;spacingLeft=4;spacingRight=4;overflow=hidden;rotatable=0;points=[[0,0.5],[1,0.5]];portConstraint=eastwest;whiteSpace=wrap;html=1;" vertex="1" parent="3uChI2uYwqrTZNYXiTaa-166">
          <mxGeometry y="30" width="330" height="30" as="geometry" />
        </mxCell>
        <mxCell id="3uChI2uYwqrTZNYXiTaa-168" value="&lt;div&gt;- scaleY: float&lt;/div&gt;" style="text;strokeColor=none;fillColor=none;align=left;verticalAlign=top;spacingLeft=4;spacingRight=4;overflow=hidden;rotatable=0;points=[[0,0.5],[1,0.5]];portConstraint=eastwest;whiteSpace=wrap;html=1;" vertex="1" parent="3uChI2uYwqrTZNYXiTaa-166">
          <mxGeometry y="60" width="330" height="30" as="geometry" />
        </mxCell>
        <mxCell id="3uChI2uYwqrTZNYXiTaa-169" value="" style="line;strokeWidth=1;fillColor=none;align=left;verticalAlign=middle;spacingTop=-1;spacingLeft=3;spacingRight=3;rotatable=0;labelPosition=right;points=[];portConstraint=eastwest;strokeColor=inherit;" vertex="1" parent="3uChI2uYwqrTZNYXiTaa-166">
          <mxGeometry y="90" width="330" height="8" as="geometry" />
        </mxCell>
        <mxCell id="3uChI2uYwqrTZNYXiTaa-170" value="&lt;div&gt;&lt;div&gt;&lt;span style=&quot;background-color: transparent; color: light-dark(rgb(0, 0, 0), rgb(255, 255, 255));&quot;&gt;+ &amp;lt;&amp;lt;constructor&amp;gt;&amp;gt;&amp;nbsp;&lt;/span&gt;TransformScale&lt;span style=&quot;background-color: transparent; color: light-dark(rgb(0, 0, 0), rgb(255, 255, 255));&quot;&gt;()&lt;/span&gt;&lt;/div&gt;&lt;/div&gt;" style="text;strokeColor=none;fillColor=none;align=left;verticalAlign=top;spacingLeft=4;spacingRight=4;overflow=hidden;rotatable=0;points=[[0,0.5],[1,0.5]];portConstraint=eastwest;whiteSpace=wrap;html=1;" vertex="1" parent="3uChI2uYwqrTZNYXiTaa-166">
          <mxGeometry y="98" width="330" height="32" as="geometry" />
        </mxCell>
        <mxCell id="3uChI2uYwqrTZNYXiTaa-171" value="&lt;div&gt;&lt;div&gt;&lt;span style=&quot;background-color: transparent; color: light-dark(rgb(0, 0, 0), rgb(255, 255, 255));&quot;&gt;+ &amp;lt;&amp;lt;constructor&amp;gt;&amp;gt;&amp;nbsp;&lt;/span&gt;TransformScale&lt;span style=&quot;background-color: transparent; color: light-dark(rgb(0, 0, 0), rgb(255, 255, 255));&quot;&gt;(x : float)&lt;/span&gt;&lt;/div&gt;&lt;/div&gt;" style="text;strokeColor=none;fillColor=none;align=left;verticalAlign=top;spacingLeft=4;spacingRight=4;overflow=hidden;rotatable=0;points=[[0,0.5],[1,0.5]];portConstraint=eastwest;whiteSpace=wrap;html=1;" vertex="1" parent="3uChI2uYwqrTZNYXiTaa-166">
          <mxGeometry y="130" width="330" height="32" as="geometry" />
        </mxCell>
        <mxCell id="3uChI2uYwqrTZNYXiTaa-172" value="&lt;div&gt;&lt;div&gt;&lt;span style=&quot;background-color: transparent; color: light-dark(rgb(0, 0, 0), rgb(255, 255, 255));&quot;&gt;+ &amp;lt;&amp;lt;constructor&amp;gt;&amp;gt;&amp;nbsp;&lt;/span&gt;TransformScale&lt;span style=&quot;background-color: transparent; color: light-dark(rgb(0, 0, 0), rgb(255, 255, 255));&quot;&gt;(x : float, y : float)&lt;/span&gt;&lt;/div&gt;&lt;/div&gt;" style="text;strokeColor=none;fillColor=none;align=left;verticalAlign=top;spacingLeft=4;spacingRight=4;overflow=hidden;rotatable=0;points=[[0,0.5],[1,0.5]];portConstraint=eastwest;whiteSpace=wrap;html=1;" vertex="1" parent="3uChI2uYwqrTZNYXiTaa-166">
          <mxGeometry y="162" width="330" height="32" as="geometry" />
        </mxCell>
        <mxCell id="3uChI2uYwqrTZNYXiTaa-173" value="&lt;div&gt;&lt;div&gt;&lt;span style=&quot;background-color: transparent; color: light-dark(rgb(0, 0, 0), rgb(255, 255, 255));&quot;&gt;+ &amp;lt;&amp;lt;override&amp;gt;&amp;gt; ~&lt;/span&gt;TransformScale&lt;span style=&quot;background-color: transparent; color: light-dark(rgb(0, 0, 0), rgb(255, 255, 255));&quot;&gt;()&lt;/span&gt;&lt;/div&gt;&lt;/div&gt;&lt;div&gt;&lt;br&gt;&lt;/div&gt;&lt;div&gt;+ &amp;lt;&amp;lt;override&amp;gt;&amp;gt; applyToGraphics(g : Graphics*) : void&lt;/div&gt;" style="text;strokeColor=none;fillColor=none;align=left;verticalAlign=top;spacingLeft=4;spacingRight=4;overflow=hidden;rotatable=0;points=[[0,0.5],[1,0.5]];portConstraint=eastwest;whiteSpace=wrap;html=1;" vertex="1" parent="3uChI2uYwqrTZNYXiTaa-166">
          <mxGeometry y="194" width="330" height="62" as="geometry" />
        </mxCell>
        <mxCell id="3uChI2uYwqrTZNYXiTaa-174" value="&lt;div style=&quot;&quot;&gt;&lt;span style=&quot;text-align: left; background-color: transparent; color: light-dark(rgb(0, 0, 0), rgb(255, 255, 255));&quot;&gt;TransformRotate&amp;nbsp;&lt;/span&gt;&lt;/div&gt;" style="swimlane;fontStyle=1;align=center;verticalAlign=top;childLayout=stackLayout;horizontal=1;startSize=30;horizontalStack=0;resizeParent=1;resizeParentMax=0;resizeLast=0;collapsible=1;marginBottom=0;whiteSpace=wrap;html=1;" vertex="1" parent="1">
          <mxGeometry x="2750" y="826" width="330" height="194" as="geometry" />
        </mxCell>
        <mxCell id="3uChI2uYwqrTZNYXiTaa-175" value="&lt;div&gt;- rotateAngle: float&lt;/div&gt;" style="text;strokeColor=none;fillColor=none;align=left;verticalAlign=top;spacingLeft=4;spacingRight=4;overflow=hidden;rotatable=0;points=[[0,0.5],[1,0.5]];portConstraint=eastwest;whiteSpace=wrap;html=1;" vertex="1" parent="3uChI2uYwqrTZNYXiTaa-174">
          <mxGeometry y="30" width="330" height="30" as="geometry" />
        </mxCell>
        <mxCell id="3uChI2uYwqrTZNYXiTaa-176" value="" style="line;strokeWidth=1;fillColor=none;align=left;verticalAlign=middle;spacingTop=-1;spacingLeft=3;spacingRight=3;rotatable=0;labelPosition=right;points=[];portConstraint=eastwest;strokeColor=inherit;" vertex="1" parent="3uChI2uYwqrTZNYXiTaa-174">
          <mxGeometry y="60" width="330" height="8" as="geometry" />
        </mxCell>
        <mxCell id="3uChI2uYwqrTZNYXiTaa-177" value="&lt;div&gt;&lt;div&gt;&lt;span style=&quot;background-color: transparent; color: light-dark(rgb(0, 0, 0), rgb(255, 255, 255));&quot;&gt;+ &amp;lt;&amp;lt;constructor&amp;gt;&amp;gt;&amp;nbsp;&lt;/span&gt;TransformRotate&lt;span style=&quot;background-color: transparent; color: light-dark(rgb(0, 0, 0), rgb(255, 255, 255));&quot;&gt;()&lt;/span&gt;&lt;/div&gt;&lt;/div&gt;" style="text;strokeColor=none;fillColor=none;align=left;verticalAlign=top;spacingLeft=4;spacingRight=4;overflow=hidden;rotatable=0;points=[[0,0.5],[1,0.5]];portConstraint=eastwest;whiteSpace=wrap;html=1;" vertex="1" parent="3uChI2uYwqrTZNYXiTaa-174">
          <mxGeometry y="68" width="330" height="32" as="geometry" />
        </mxCell>
        <mxCell id="3uChI2uYwqrTZNYXiTaa-178" value="&lt;div&gt;&lt;div&gt;&lt;span style=&quot;background-color: transparent; color: light-dark(rgb(0, 0, 0), rgb(255, 255, 255));&quot;&gt;+ &amp;lt;&amp;lt;constructor&amp;gt;&amp;gt;&amp;nbsp;&lt;/span&gt;TransformRotate&lt;span style=&quot;background-color: transparent; color: light-dark(rgb(0, 0, 0), rgb(255, 255, 255));&quot;&gt;(x : float)&lt;/span&gt;&lt;/div&gt;&lt;/div&gt;" style="text;strokeColor=none;fillColor=none;align=left;verticalAlign=top;spacingLeft=4;spacingRight=4;overflow=hidden;rotatable=0;points=[[0,0.5],[1,0.5]];portConstraint=eastwest;whiteSpace=wrap;html=1;" vertex="1" parent="3uChI2uYwqrTZNYXiTaa-174">
          <mxGeometry y="100" width="330" height="32" as="geometry" />
        </mxCell>
        <mxCell id="3uChI2uYwqrTZNYXiTaa-179" value="&lt;div&gt;&lt;div&gt;&lt;span style=&quot;background-color: transparent; color: light-dark(rgb(0, 0, 0), rgb(255, 255, 255));&quot;&gt;+ &amp;lt;&amp;lt;override&amp;gt;&amp;gt; ~&lt;/span&gt;TransformRotate&lt;span style=&quot;background-color: transparent; color: light-dark(rgb(0, 0, 0), rgb(255, 255, 255));&quot;&gt;()&lt;/span&gt;&lt;/div&gt;&lt;/div&gt;&lt;div&gt;&lt;br&gt;&lt;/div&gt;&lt;div&gt;+ &amp;lt;&amp;lt;override&amp;gt;&amp;gt; applyToGraphics(g : Graphics*) : void&lt;/div&gt;" style="text;strokeColor=none;fillColor=none;align=left;verticalAlign=top;spacingLeft=4;spacingRight=4;overflow=hidden;rotatable=0;points=[[0,0.5],[1,0.5]];portConstraint=eastwest;whiteSpace=wrap;html=1;" vertex="1" parent="3uChI2uYwqrTZNYXiTaa-174">
          <mxGeometry y="132" width="330" height="62" as="geometry" />
        </mxCell>
        <mxCell id="3uChI2uYwqrTZNYXiTaa-180" style="edgeStyle=orthogonalEdgeStyle;rounded=0;orthogonalLoop=1;jettySize=auto;html=1;entryX=0;entryY=0.103;entryDx=0;entryDy=0;entryPerimeter=0;endArrow=none;endFill=0;startArrow=block;startFill=0;startSize=24;dashed=1;" edge="1" parent="1" source="3uChI2uYwqrTZNYXiTaa-152" target="3uChI2uYwqrTZNYXiTaa-174">
          <mxGeometry relative="1" as="geometry" />
        </mxCell>
        <mxCell id="3uChI2uYwqrTZNYXiTaa-181" style="edgeStyle=orthogonalEdgeStyle;rounded=0;orthogonalLoop=1;jettySize=auto;html=1;entryX=0.018;entryY=0.075;entryDx=0;entryDy=0;entryPerimeter=0;endArrow=none;endFill=0;startArrow=block;startFill=0;startSize=24;dashed=1;" edge="1" parent="1" source="3uChI2uYwqrTZNYXiTaa-152" target="3uChI2uYwqrTZNYXiTaa-166">
          <mxGeometry relative="1" as="geometry" />
        </mxCell>
        <mxCell id="3uChI2uYwqrTZNYXiTaa-182" style="edgeStyle=orthogonalEdgeStyle;rounded=0;orthogonalLoop=1;jettySize=auto;html=1;entryX=-0.003;entryY=0.094;entryDx=0;entryDy=0;entryPerimeter=0;endArrow=none;endFill=0;startArrow=block;startFill=0;startSize=24;dashed=1;" edge="1" parent="1" source="3uChI2uYwqrTZNYXiTaa-152" target="3uChI2uYwqrTZNYXiTaa-158">
          <mxGeometry relative="1" as="geometry" />
        </mxCell>
        <mxCell id="3uChI2uYwqrTZNYXiTaa-183" value="&lt;div&gt;Parses and stores SVG transform attributes.&lt;/div&gt;&lt;div&gt;Applies them in the original SVG order.&lt;/div&gt;" style="shape=note;whiteSpace=wrap;html=1;backgroundOutline=1;darkOpacity=0.05;align=left;" vertex="1" parent="1">
          <mxGeometry x="2390" y="1048" width="270" height="50" as="geometry" />
        </mxCell>
        <mxCell id="3uChI2uYwqrTZNYXiTaa-184" style="edgeStyle=orthogonalEdgeStyle;rounded=0;orthogonalLoop=1;jettySize=auto;html=1;entryX=1;entryY=0.048;entryDx=0;entryDy=0;entryPerimeter=0;dashed=1;endArrow=none;endFill=0;" edge="1" parent="1" source="3uChI2uYwqrTZNYXiTaa-183" target="3uChI2uYwqrTZNYXiTaa-148">
          <mxGeometry relative="1" as="geometry">
            <Array as="points">
              <mxPoint x="2540" y="828" />
            </Array>
          </mxGeometry>
        </mxCell>
        <mxCell id="3uChI2uYwqrTZNYXiTaa-185" value="&lt;div&gt;Handles all variables and methods needed&amp;nbsp;&lt;/div&gt;&lt;div&gt;for rendering and running. (Singleton pattern)&lt;/div&gt;" style="shape=note;whiteSpace=wrap;html=1;backgroundOutline=1;darkOpacity=0.05;align=left;" vertex="1" parent="1">
          <mxGeometry x="790" y="248" width="270" height="50" as="geometry" />
        </mxCell>
        <mxCell id="3uChI2uYwqrTZNYXiTaa-186" style="edgeStyle=orthogonalEdgeStyle;rounded=0;orthogonalLoop=1;jettySize=auto;html=1;entryX=0.005;entryY=0.01;entryDx=0;entryDy=0;entryPerimeter=0;dashed=1;endArrow=none;endFill=0;" edge="1" parent="1" source="3uChI2uYwqrTZNYXiTaa-185" target="3uChI2uYwqrTZNYXiTaa-140">
          <mxGeometry relative="1" as="geometry">
            <Array as="points">
              <mxPoint x="925" y="219" />
            </Array>
          </mxGeometry>
        </mxCell>
        <mxCell id="3uChI2uYwqrTZNYXiTaa-187" value="SVGPath" style="swimlane;fontStyle=1;align=center;verticalAlign=top;childLayout=stackLayout;horizontal=1;startSize=26;horizontalStack=0;resizeParent=1;resizeParentMax=0;resizeLast=0;collapsible=1;marginBottom=0;whiteSpace=wrap;html=1;" vertex="1" parent="1">
          <mxGeometry x="400" y="1678" width="460" height="204" as="geometry" />
        </mxCell>
        <mxCell id="3uChI2uYwqrTZNYXiTaa-188" value="- commands : vector&amp;lt;PathCommand&amp;gt;" style="text;strokeColor=none;fillColor=none;align=left;verticalAlign=top;spacingLeft=4;spacingRight=4;overflow=hidden;rotatable=0;points=[[0,0.5],[1,0.5]];portConstraint=eastwest;whiteSpace=wrap;html=1;" vertex="1" parent="3uChI2uYwqrTZNYXiTaa-187">
          <mxGeometry y="26" width="460" height="26" as="geometry" />
        </mxCell>
        <mxCell id="3uChI2uYwqrTZNYXiTaa-189" value="" style="line;strokeWidth=1;fillColor=none;align=left;verticalAlign=middle;spacingTop=-1;spacingLeft=3;spacingRight=3;rotatable=0;labelPosition=right;points=[];portConstraint=eastwest;strokeColor=inherit;" vertex="1" parent="3uChI2uYwqrTZNYXiTaa-187">
          <mxGeometry y="52" width="460" height="8" as="geometry" />
        </mxCell>
        <mxCell id="3uChI2uYwqrTZNYXiTaa-190" value="+ &amp;lt;&amp;lt;override&amp;gt;&amp;gt; processAttribute(attributeName: char*, attributeValue: char*) : void" style="text;strokeColor=none;fillColor=none;align=left;verticalAlign=top;spacingLeft=4;spacingRight=4;overflow=hidden;rotatable=0;points=[[0,0.5],[1,0.5]];portConstraint=eastwest;whiteSpace=wrap;html=1;" vertex="1" parent="3uChI2uYwqrTZNYXiTaa-187">
          <mxGeometry y="60" width="460" height="26" as="geometry" />
        </mxCell>
        <mxCell id="3uChI2uYwqrTZNYXiTaa-191" value="&lt;div&gt;+&amp;nbsp;&lt;span style=&quot;background-color: transparent; color: light-dark(rgb(0, 0, 0), rgb(255, 255, 255));&quot;&gt;&amp;lt;&amp;lt;override&amp;gt;&amp;gt;&amp;nbsp;&lt;/span&gt;&lt;span style=&quot;background-color: transparent; color: light-dark(rgb(0, 0, 0), rgb(255, 255, 255));&quot;&gt;draw(graphics: Graphics&amp;amp;) : void&lt;/span&gt;&lt;/div&gt;&lt;div&gt;&lt;span style=&quot;background-color: transparent; color: light-dark(rgb(0, 0, 0), rgb(255, 255, 255));&quot;&gt;&lt;br&gt;&lt;/span&gt;&lt;/div&gt;" style="text;strokeColor=none;fillColor=none;align=left;verticalAlign=top;spacingLeft=4;spacingRight=4;overflow=hidden;rotatable=0;points=[[0,0.5],[1,0.5]];portConstraint=eastwest;whiteSpace=wrap;html=1;" vertex="1" parent="3uChI2uYwqrTZNYXiTaa-187">
          <mxGeometry y="86" width="460" height="26" as="geometry" />
        </mxCell>
        <mxCell id="3uChI2uYwqrTZNYXiTaa-192" value="&lt;div&gt;+ handleCommand(cmd : char, nums : const vector&amp;lt;float&amp;gt;)&lt;span style=&quot;background-color: transparent; color: light-dark(rgb(0, 0, 0), rgb(255, 255, 255));&quot;&gt;&amp;nbsp;: void&lt;/span&gt;&lt;/div&gt;&lt;div&gt;&lt;span style=&quot;background-color: transparent; color: light-dark(rgb(0, 0, 0), rgb(255, 255, 255));&quot;&gt;&lt;br&gt;&lt;/span&gt;&lt;/div&gt;" style="text;strokeColor=none;fillColor=none;align=left;verticalAlign=top;spacingLeft=4;spacingRight=4;overflow=hidden;rotatable=0;points=[[0,0.5],[1,0.5]];portConstraint=eastwest;whiteSpace=wrap;html=1;" vertex="1" parent="3uChI2uYwqrTZNYXiTaa-187">
          <mxGeometry y="112" width="460" height="26" as="geometry" />
        </mxCell>
        <mxCell id="3uChI2uYwqrTZNYXiTaa-193" value="&lt;div&gt;+ &amp;lt;&amp;lt;constructor&amp;gt;&amp;gt; SVGPath()&lt;/div&gt;" style="text;strokeColor=none;fillColor=none;align=left;verticalAlign=top;spacingLeft=4;spacingRight=4;overflow=hidden;rotatable=0;points=[[0,0.5],[1,0.5]];portConstraint=eastwest;whiteSpace=wrap;html=1;" vertex="1" parent="3uChI2uYwqrTZNYXiTaa-187">
          <mxGeometry y="138" width="460" height="26" as="geometry" />
        </mxCell>
        <mxCell id="3uChI2uYwqrTZNYXiTaa-215" value="&lt;div&gt;&lt;span style=&quot;background-color: transparent;&quot;&gt;+ &amp;lt;&amp;lt;constructor&amp;gt;&amp;gt;&amp;nbsp;&lt;/span&gt;&lt;span style=&quot;text-align: center;&quot;&gt;SVGPath&lt;/span&gt;&lt;span style=&quot;background-color: transparent;&quot;&gt;(_stroke :&amp;nbsp;const RGBAColor&amp;amp;, _strokeWidth :&amp;nbsp;const float&amp;amp;, _fill :&amp;nbsp;const RGBAColor&amp;amp;)&lt;/span&gt;&lt;/div&gt;" style="text;strokeColor=none;fillColor=none;align=left;verticalAlign=top;spacingLeft=4;spacingRight=4;overflow=hidden;rotatable=0;points=[[0,0.5],[1,0.5]];portConstraint=eastwest;whiteSpace=wrap;html=1;" vertex="1" parent="3uChI2uYwqrTZNYXiTaa-187">
          <mxGeometry y="164" width="460" height="40" as="geometry" />
        </mxCell>
        <mxCell id="3uChI2uYwqrTZNYXiTaa-194" value="PathCommand" style="swimlane;fontStyle=1;align=center;verticalAlign=top;childLayout=stackLayout;horizontal=1;startSize=26;horizontalStack=0;resizeParent=1;resizeParentMax=0;resizeLast=0;collapsible=1;marginBottom=0;whiteSpace=wrap;html=1;" vertex="1" parent="1">
          <mxGeometry x="-170" y="1678" width="460" height="164" as="geometry" />
        </mxCell>
        <mxCell id="3uChI2uYwqrTZNYXiTaa-195" value="- type : char" style="text;strokeColor=none;fillColor=none;align=left;verticalAlign=top;spacingLeft=4;spacingRight=4;overflow=hidden;rotatable=0;points=[[0,0.5],[1,0.5]];portConstraint=eastwest;whiteSpace=wrap;html=1;" vertex="1" parent="3uChI2uYwqrTZNYXiTaa-194">
          <mxGeometry y="26" width="460" height="26" as="geometry" />
        </mxCell>
        <mxCell id="3uChI2uYwqrTZNYXiTaa-196" value="- data : vector&amp;lt;Point2D&amp;gt;" style="text;strokeColor=none;fillColor=none;align=left;verticalAlign=top;spacingLeft=4;spacingRight=4;overflow=hidden;rotatable=0;points=[[0,0.5],[1,0.5]];portConstraint=eastwest;whiteSpace=wrap;html=1;" vertex="1" parent="3uChI2uYwqrTZNYXiTaa-194">
          <mxGeometry y="52" width="460" height="26" as="geometry" />
        </mxCell>
        <mxCell id="3uChI2uYwqrTZNYXiTaa-197" value="" style="line;strokeWidth=1;fillColor=none;align=left;verticalAlign=middle;spacingTop=-1;spacingLeft=3;spacingRight=3;rotatable=0;labelPosition=right;points=[];portConstraint=eastwest;strokeColor=inherit;" vertex="1" parent="3uChI2uYwqrTZNYXiTaa-194">
          <mxGeometry y="78" width="460" height="8" as="geometry" />
        </mxCell>
        <mxCell id="3uChI2uYwqrTZNYXiTaa-198" value="&lt;div&gt;+&amp;nbsp;&lt;span style=&quot;background-color: transparent; color: light-dark(rgb(0, 0, 0), rgb(255, 255, 255));&quot;&gt;&amp;lt;&amp;lt;override&amp;gt;&amp;gt;&amp;nbsp;&lt;/span&gt;&lt;span style=&quot;background-color: transparent; color: light-dark(rgb(0, 0, 0), rgb(255, 255, 255));&quot;&gt;draw(graphics: Graphics&amp;amp;) : void&lt;/span&gt;&lt;/div&gt;&lt;div&gt;&lt;span style=&quot;background-color: transparent; color: light-dark(rgb(0, 0, 0), rgb(255, 255, 255));&quot;&gt;&lt;br&gt;&lt;/span&gt;&lt;/div&gt;" style="text;strokeColor=none;fillColor=none;align=left;verticalAlign=top;spacingLeft=4;spacingRight=4;overflow=hidden;rotatable=0;points=[[0,0.5],[1,0.5]];portConstraint=eastwest;whiteSpace=wrap;html=1;" vertex="1" parent="3uChI2uYwqrTZNYXiTaa-194">
          <mxGeometry y="86" width="460" height="26" as="geometry" />
        </mxCell>
        <mxCell id="3uChI2uYwqrTZNYXiTaa-199" value="&lt;div&gt;+ handleCommand(cmd : char, nums : const vector&amp;lt;float&amp;gt;)&lt;span style=&quot;background-color: transparent; color: light-dark(rgb(0, 0, 0), rgb(255, 255, 255));&quot;&gt;&amp;nbsp;: void&lt;/span&gt;&lt;/div&gt;&lt;div&gt;&lt;span style=&quot;background-color: transparent; color: light-dark(rgb(0, 0, 0), rgb(255, 255, 255));&quot;&gt;&lt;br&gt;&lt;/span&gt;&lt;/div&gt;" style="text;strokeColor=none;fillColor=none;align=left;verticalAlign=top;spacingLeft=4;spacingRight=4;overflow=hidden;rotatable=0;points=[[0,0.5],[1,0.5]];portConstraint=eastwest;whiteSpace=wrap;html=1;" vertex="1" parent="3uChI2uYwqrTZNYXiTaa-194">
          <mxGeometry y="112" width="460" height="26" as="geometry" />
        </mxCell>
        <mxCell id="3uChI2uYwqrTZNYXiTaa-200" value="&lt;div&gt;+ &amp;lt;&amp;lt;constructor&amp;gt;&amp;gt; SVGPath()&lt;/div&gt;" style="text;strokeColor=none;fillColor=none;align=left;verticalAlign=top;spacingLeft=4;spacingRight=4;overflow=hidden;rotatable=0;points=[[0,0.5],[1,0.5]];portConstraint=eastwest;whiteSpace=wrap;html=1;" vertex="1" parent="3uChI2uYwqrTZNYXiTaa-194">
          <mxGeometry y="138" width="460" height="26" as="geometry" />
        </mxCell>
        <mxCell id="3uChI2uYwqrTZNYXiTaa-201" value="" style="endArrow=diamondThin;endFill=1;endSize=24;html=1;rounded=0;" edge="1" parent="1" source="3uChI2uYwqrTZNYXiTaa-194" target="3uChI2uYwqrTZNYXiTaa-187">
          <mxGeometry width="160" relative="1" as="geometry">
            <mxPoint x="411" y="1820" as="sourcePoint" />
            <mxPoint x="140" y="2088" as="targetPoint" />
          </mxGeometry>
        </mxCell>
        <mxCell id="3uChI2uYwqrTZNYXiTaa-202" value="" style="endArrow=block;endSize=16;endFill=0;html=1;rounded=0;" edge="1" parent="1" source="3uChI2uYwqrTZNYXiTaa-187" target="3uChI2uYwqrTZNYXiTaa-136">
          <mxGeometry width="160" relative="1" as="geometry">
            <mxPoint x="845" y="1958" as="sourcePoint" />
            <mxPoint x="1150" y="1738" as="targetPoint" />
          </mxGeometry>
        </mxCell>
        <mxCell id="3uChI2uYwqrTZNYXiTaa-203" value="" style="endArrow=diamondThin;endFill=1;endSize=24;html=1;rounded=0;" edge="1" parent="1" source="3uChI2uYwqrTZNYXiTaa-102" target="3uChI2uYwqrTZNYXiTaa-194">
          <mxGeometry width="160" relative="1" as="geometry">
            <mxPoint x="300" y="1770" as="sourcePoint" />
            <mxPoint x="410" y="1770" as="targetPoint" />
            <Array as="points">
              <mxPoint x="60" y="1348" />
            </Array>
          </mxGeometry>
        </mxCell>
        <mxCell id="3uChI2uYwqrTZNYXiTaa-216" value="SVGGroup" style="swimlane;fontStyle=1;align=center;verticalAlign=top;childLayout=stackLayout;horizontal=1;startSize=26;horizontalStack=0;resizeParent=1;resizeParentMax=0;resizeLast=0;collapsible=1;marginBottom=0;whiteSpace=wrap;html=1;" vertex="1" parent="1">
          <mxGeometry x="210" y="2010" width="470" height="280" as="geometry" />
        </mxCell>
        <mxCell id="3uChI2uYwqrTZNYXiTaa-217" value="&lt;div&gt;&lt;span style=&quot;background-color: transparent; color: light-dark(rgb(0, 0, 0), rgb(255, 255, 255));&quot;&gt;-&amp;nbsp;&lt;/span&gt;&lt;span style=&quot;background-color: transparent;&quot;&gt;children&amp;nbsp;&lt;/span&gt;&lt;span style=&quot;background-color: transparent; color: light-dark(rgb(0, 0, 0), rgb(255, 255, 255));&quot;&gt;: vector&amp;lt;SVGShape*&amp;gt;&lt;/span&gt;&lt;/div&gt;" style="text;strokeColor=none;fillColor=none;align=left;verticalAlign=top;spacingLeft=4;spacingRight=4;overflow=hidden;rotatable=0;points=[[0,0.5],[1,0.5]];portConstraint=eastwest;whiteSpace=wrap;html=1;" vertex="1" parent="3uChI2uYwqrTZNYXiTaa-216">
          <mxGeometry y="26" width="470" height="24" as="geometry" />
        </mxCell>
        <mxCell id="3uChI2uYwqrTZNYXiTaa-218" value="" style="line;strokeWidth=1;fillColor=none;align=left;verticalAlign=middle;spacingTop=-1;spacingLeft=3;spacingRight=3;rotatable=0;labelPosition=right;points=[];portConstraint=eastwest;strokeColor=inherit;" vertex="1" parent="3uChI2uYwqrTZNYXiTaa-216">
          <mxGeometry y="50" width="470" height="8" as="geometry" />
        </mxCell>
        <mxCell id="3uChI2uYwqrTZNYXiTaa-219" value="+ &amp;lt;&amp;lt;override&amp;gt;&amp;gt; processAttribute(attributeName: char*, attributeValue: char*) : void&lt;div&gt;&lt;br&gt;&lt;div&gt;+&amp;nbsp;&lt;span style=&quot;background-color: transparent; color: light-dark(rgb(0, 0, 0), rgb(255, 255, 255));&quot;&gt;&amp;lt;&amp;lt;override&amp;gt;&amp;gt;&amp;nbsp;&lt;/span&gt;&lt;span style=&quot;background-color: transparent; color: light-dark(rgb(0, 0, 0), rgb(255, 255, 255));&quot;&gt;draw(graphics: Graphics&amp;amp;) : void&lt;/span&gt;&lt;/div&gt;&lt;/div&gt;&lt;div&gt;&lt;span style=&quot;background-color: transparent; color: light-dark(rgb(0, 0, 0), rgb(255, 255, 255));&quot;&gt;&lt;br&gt;&lt;/span&gt;&lt;/div&gt;&lt;div&gt;&lt;span style=&quot;background-color: transparent; color: light-dark(rgb(0, 0, 0), rgb(255, 255, 255));&quot;&gt;+&amp;nbsp;&lt;/span&gt;&lt;span style=&quot;background-color: transparent; color: light-dark(rgb(0, 0, 0), rgb(255, 255, 255));&quot;&gt;&amp;lt;&amp;lt;constructor&amp;gt;&amp;gt;&amp;nbsp;&lt;/span&gt;&lt;span style=&quot;background-color: transparent; color: light-dark(rgb(0, 0, 0), rgb(255, 255, 255));&quot;&gt;SVGGroup()&lt;/span&gt;&lt;/div&gt;&lt;div&gt;&lt;span style=&quot;color: rgba(0, 0, 0, 0); font-family: monospace; font-size: 0px; text-wrap-mode: nowrap;&quot;&gt;%3CmxGraphModel%3E%3Croot%3E%3CmxCell%20id%3D%220%22%2F%3E%3CmxCell%20id%3D%221%22%20parent%3D%220%22%2F%3E%3CmxCell%20id%3D%222%22%20value%3D%22%26lt%3Bdiv%26gt%3B%26lt%3Bspan%20style%3D%26quot%3Bbackground-color%3A%20transparent%3B%26quot%3B%26gt%3B%2B%20%26amp%3Blt%3B%26amp%3Blt%3Bconstructor%26amp%3Bgt%3B%26amp%3Bgt%3B%26amp%3Bnbsp%3B%26lt%3B%2Fspan%26gt%3B%26lt%3Bspan%20style%3D%26quot%3Btext-align%3A%20center%3B%26quot%3B%26gt%3BSVGRectangle%26lt%3B%2Fspan%26gt%3B%26lt%3Bspan%20style%3D%26quot%3Bbackground-color%3A%20transparent%3B%26quot%3B%26gt%3B(_stroke%20%3A%26amp%3Bnbsp%3Bconst%20RGBAColor%26amp%3Bamp%3B%2C%20_strokeWidth%20%3A%26amp%3Bnbsp%3Bconst%20float%26amp%3Bamp%3B%2C%20_fill%20%3A%26amp%3Bnbsp%3Bconst%20RGBAColor%26amp%3Bamp%3B)%26lt%3B%2Fspan%26gt%3B%26lt%3B%2Fdiv%26gt%3B%22%20style%3D%22text%3BstrokeColor%3Dnone%3BfillColor%3Dnone%3Balign%3Dleft%3BverticalAlign%3Dtop%3BspacingLeft%3D4%3BspacingRight%3D4%3Boverflow%3Dhidden%3Brotatable%3D0%3Bpoints%3D%5B%5B0%2C0.5%5D%2C%5B1%2C0.5%5D%5D%3BportConstraint%3Deastwest%3BwhiteSpace%3Dwrap%3Bhtml%3D1%3B%22%20vertex%3D%221%22%20parent%3D%221%22%3E%3CmxGeometry%20x%3D%221160%22%20y%3D%222540%22%20width%3D%22470%22%20height%3D%2240%22%20as%3D%22geometry%22%2F%3E%3C%2FmxCell%3E%3C%2Froot%3E%3C%2FmxGraphModel%3E&lt;/span&gt;&lt;span style=&quot;background-color: transparent; color: light-dark(rgb(0, 0, 0), rgb(255, 255, 255));&quot;&gt;&lt;/span&gt;&lt;/div&gt;" style="text;strokeColor=none;fillColor=none;align=left;verticalAlign=top;spacingLeft=4;spacingRight=4;overflow=hidden;rotatable=0;points=[[0,0.5],[1,0.5]];portConstraint=eastwest;whiteSpace=wrap;html=1;" vertex="1" parent="3uChI2uYwqrTZNYXiTaa-216">
          <mxGeometry y="58" width="470" height="92" as="geometry" />
        </mxCell>
        <mxCell id="3uChI2uYwqrTZNYXiTaa-220" value="&lt;div&gt;&lt;span style=&quot;background-color: transparent;&quot;&gt;+ &amp;lt;&amp;lt;constructor&amp;gt;&amp;gt;&amp;nbsp;&lt;/span&gt;&lt;span style=&quot;text-align: center;&quot;&gt;SVGGroup&lt;/span&gt;&lt;span style=&quot;background-color: transparent;&quot;&gt;(_stroke :&amp;nbsp;const RGBAColor&amp;amp;, _strokeWidth :&amp;nbsp;const float&amp;amp;, _fill :&amp;nbsp;const RGBAColor&amp;amp;)&lt;/span&gt;&lt;/div&gt;" style="text;strokeColor=none;fillColor=none;align=left;verticalAlign=top;spacingLeft=4;spacingRight=4;overflow=hidden;rotatable=0;points=[[0,0.5],[1,0.5]];portConstraint=eastwest;whiteSpace=wrap;html=1;" vertex="1" parent="3uChI2uYwqrTZNYXiTaa-216">
          <mxGeometry y="150" width="470" height="40" as="geometry" />
        </mxCell>
        <mxCell id="3uChI2uYwqrTZNYXiTaa-221" value="&lt;div&gt;&lt;span style=&quot;background-color: transparent;&quot;&gt;+ ~&lt;/span&gt;&lt;span style=&quot;text-align: center;&quot;&gt;SVGGroup&lt;/span&gt;&lt;span style=&quot;background-color: transparent;&quot;&gt;()&lt;/span&gt;&lt;/div&gt;" style="text;strokeColor=none;fillColor=none;align=left;verticalAlign=top;spacingLeft=4;spacingRight=4;overflow=hidden;rotatable=0;points=[[0,0.5],[1,0.5]];portConstraint=eastwest;whiteSpace=wrap;html=1;" vertex="1" parent="3uChI2uYwqrTZNYXiTaa-216">
          <mxGeometry y="190" width="470" height="30" as="geometry" />
        </mxCell>
        <mxCell id="3uChI2uYwqrTZNYXiTaa-222" value="&lt;div&gt;&lt;span style=&quot;background-color: transparent;&quot;&gt;+ &lt;/span&gt;&lt;span style=&quot;text-align: center;&quot;&gt;appendChild&lt;/span&gt;&lt;span style=&quot;background-color: transparent;&quot;&gt;(shape : SVGShape*) : void&amp;nbsp;&lt;/span&gt;&lt;/div&gt;" style="text;strokeColor=none;fillColor=none;align=left;verticalAlign=top;spacingLeft=4;spacingRight=4;overflow=hidden;rotatable=0;points=[[0,0.5],[1,0.5]];portConstraint=eastwest;whiteSpace=wrap;html=1;" vertex="1" parent="3uChI2uYwqrTZNYXiTaa-216">
          <mxGeometry y="220" width="470" height="30" as="geometry" />
        </mxCell>
        <mxCell id="3uChI2uYwqrTZNYXiTaa-223" value="&lt;div style=&quot;text-align: center;&quot;&gt;&lt;span style=&quot;background-color: transparent;&quot;&gt;+&amp;nbsp;&lt;/span&gt;&lt;span style=&quot;background-color: transparent;&quot;&gt;getChildren() :&amp;nbsp;&lt;/span&gt;&lt;span style=&quot;background-color: transparent; text-align: left;&quot;&gt;const vector&amp;lt;SVGShape*&amp;gt;&amp;amp;&lt;/span&gt;&lt;/div&gt;" style="text;strokeColor=none;fillColor=none;align=left;verticalAlign=top;spacingLeft=4;spacingRight=4;overflow=hidden;rotatable=0;points=[[0,0.5],[1,0.5]];portConstraint=eastwest;whiteSpace=wrap;html=1;" vertex="1" parent="3uChI2uYwqrTZNYXiTaa-216">
          <mxGeometry y="250" width="470" height="30" as="geometry" />
        </mxCell>
        <mxCell id="3uChI2uYwqrTZNYXiTaa-226" style="edgeStyle=orthogonalEdgeStyle;rounded=0;orthogonalLoop=1;jettySize=auto;html=1;entryX=0.828;entryY=0.007;entryDx=0;entryDy=0;entryPerimeter=0;endArrow=diamondThin;endFill=1;startArrow=block;startFill=0;startSize=16;endSize=24;" edge="1" parent="1" source="3uChI2uYwqrTZNYXiTaa-136" target="3uChI2uYwqrTZNYXiTaa-216">
          <mxGeometry relative="1" as="geometry">
            <Array as="points">
              <mxPoint x="910" y="1850" />
              <mxPoint x="910" y="1980" />
              <mxPoint x="599" y="1980" />
            </Array>
          </mxGeometry>
        </mxCell>
      </root>
    </mxGraphModel>
  </diagram>
</mxfile>
